<?xml version="1.0" standalone="no"?><!DOCTYPE svg PUBLIC "-//W3C//DTD SVG 1.1//EN" "http://www.w3.org/Graphics/SVG/1.1/DTD/svg11.dtd"><svg t="1670830691581" class="icon" viewBox="0 0 1024 1024" version="1.1" xmlns="http://www.w3.org/2000/svg" p-id="1860" xmlns:xlink="http://www.w3.org/1999/xlink" width="200" height="200"><path d="M572.3 678.5c-60.8 0-117.9-23.5-160.6-66.2-25.6-25.6-44.9-57.4-55.7-91.9-4.6-14.8 3.6-30.4 18.3-35.1 14.8-4.6 30.5 3.6 35.1 18.3 8.3 26.3 22.4 49.5 41.9 69 66.7 66.7 175.2 66.7 241.9 0l160.9-160.8c66.7-66.7 66.7-175.2 0-241.9C822 137.8 779 120 733.2 120c-45.9 0-88.8 17.7-120.9 49.9L498.5 283.6c-10.9 10.9-28.7 10.9-39.6 0s-10.9-28.7 0-39.6l113.8-113.8C615.3 87.5 672.4 64 733.2 64s117.9 23.5 160.6 66.2C936.5 172.9 960 230 960 290.8s-23.5 117.9-66.2 160.6L732.9 612.2c-42.8 42.8-99.8 66.3-160.6 66.3z" p-id="1861"></path><path d="M290.8 960c-60.8 0-117.9-23.5-160.6-66.2C87.5 851 64 794 64 733.2s23.5-117.9 66.2-160.6L291 411.8c42.7-42.7 99.8-66.2 160.6-66.2s117.9 23.5 160.6 66.2c25.6 25.6 44.9 57.4 55.7 91.9 4.6 14.8-3.6 30.5-18.3 35.1-14.8 4.6-30.5-3.6-35.1-18.3-8.3-26.3-22.4-49.5-41.9-69-32.1-32.1-75.1-49.9-120.9-49.9-45.8 0-88.8 17.7-120.9 49.9L169.9 612.2c-32.1 32.1-49.9 75.1-49.9 120.9 0 45.9 17.7 88.8 49.9 120.9 66.7 66.7 175.2 66.7 241.9 0l113.8-113.8c10.9-10.9 28.7-10.9 39.6 0s10.9 28.7 0 39.6L451.4 893.7c-42.7 42.8-99.8 66.3-160.6 66.3z" p-id="1862"></path></svg>