<svg xmlns="http://www.w3.org/2000/svg" width="848.149" height="848.157" viewBox="0 0 848.149 848.157"><defs><style>.a{fill:none;stroke:#ff0049;stroke-miterlimit:10;}</style></defs><path class="a" d="M13364.746,921.075c-116.51,0-222.333-47.5-299.254-124.326l-.241.239a423.5,423.5,0,0,1,0-598.987q3.772-3.767,7.8-7.142c76.225-72.482,178.956-116.941,291.694-116.941,116.389,0,222.141,47.406,299.023,124.083l.229.242.243.228.311.326c76.513,76.86,123.773,182.466,123.773,298.7,0,116.388-47.406,222.139-124.084,299.024l-.243.228-.229.239-.323.315C13586.6,873.8,13480.979,921.075,13364.746,921.075Z" transform="translate(-12940.676 -73.418)"/></svg>