<svg xmlns="http://www.w3.org/2000/svg" width="1274.367" height="1089.732" viewBox="0 0 1274.367 1089.732"><defs><style>.a{fill:none;stroke:#ff0049;stroke-miterlimit:10;}</style></defs><path class="a" d="M13871.17,755.738l129.98,83.349c1.92,1.011,3.821,2.105,5.686,3.3a74.82,74.82,0,0,1,22.609,103.357,213.142,213.142,0,1,0,358.876,230.058,74.819,74.819,0,0,1,103.356-22.608l271.035,173.746a74.823,74.823,0,0,1,22.609,103.358c-102.036,159.171-258.945,261.915-430.13,299.364s-356.664,9.582-515.832-92.453-261.921-258.953-299.362-430.126c-37.445-171.191-9.589-356.665,92.447-515.835l.244.157a74.523,74.523,0,0,1,102.954-22.52Z" transform="translate(-13523.428 -656.45)"/></svg>