<?xml version="1.0" encoding="UTF-8" standalone="no"?>
<!-- Created with Inkscape (http://www.inkscape.org/) -->

<svg
   version="1.1"
   id="svg2"
   width="352.40134"
   height="584.79333"
   viewBox="0 0 352.40134 584.79333"
   sodipodi:docname="y.ai"
   xmlns:inkscape="http://www.inkscape.org/namespaces/inkscape"
   xmlns:sodipodi="http://sodipodi.sourceforge.net/DTD/sodipodi-0.dtd"
   xmlns="http://www.w3.org/2000/svg"
   xmlns:svg="http://www.w3.org/2000/svg">
  <defs
     id="defs6">
    <clipPath
       clipPathUnits="userSpaceOnUse"
       id="clipPath16">
      <path
         d="m 178.934,428.269 -10.795,-6.628 C 153.442,412.617 146.68,404.13 147.847,396.176 v 0 l 15.559,-105.038 c 1.993,-11.998 7.139,-33.82 15.425,-65.479 v 0 l -1.799,-1.105 c -22.38,28.379 -35.922,45.045 -40.617,50.013 v 0 l -68.637,72.447 c -5.37,5.374 -15.402,3.55 -30.091,-5.469 v 0 L 23.29,332.706 C 4.095,320.92 -3.103,311.131 1.684,303.336 v 0 c 0.923,-1.504 64.405,-65.554 190.449,-192.154 v 0 l 9.688,-97.495 c 0.224,-4.399 1.073,-7.799 2.548,-10.203 v 0 c 3.681,-5.995 14.219,-3.657 31.615,7.024 v 0 l 7.647,4.695 c 14.689,9.019 21.459,17.511 20.291,25.465 v 0 l -50.099,384.248 c -0.714,4.516 -1.708,7.826 -2.998,9.927 v 0 c -1.434,2.335 -3.798,3.502 -7.094,3.502 v 0 c -5.59,0 -13.857,-3.36 -24.797,-10.076"
         id="path14" />
    </clipPath>
    <clipPath
       clipPathUnits="userSpaceOnUse"
       id="clipPath156">
      <path
         d="M 0,438.595 H 264.301 V 0 H 0 Z"
         id="path154" />
    </clipPath>
  </defs>
  <sodipodi:namedview
     id="namedview4"
     pagecolor="#ffffff"
     bordercolor="#000000"
     borderopacity="0.25"
     inkscape:showpageshadow="2"
     inkscape:pageopacity="0.0"
     inkscape:pagecheckerboard="0"
     inkscape:deskcolor="#d1d1d1" />
  <g
     id="g8"
     inkscape:groupmode="layer"
     inkscape:label="y"
     transform="matrix(1.3333333,0,0,-1.3333333,0,584.79333)">
    <g
       id="g10">
      <g
         id="g12"
         clip-path="url(#clipPath16)">
        <g
           id="g18"
           transform="translate(38.2172,628.4478)">
          <path
             d="M 0,0 -28.765,-825.81"
             style="fill:#6b6b6b;fill-opacity:1;fill-rule:nonzero;stroke:#ffffff;stroke-width:0.25;stroke-linecap:butt;stroke-linejoin:miter;stroke-miterlimit:10;stroke-dasharray:none;stroke-opacity:1"
             id="path20" />
        </g>
        <g
           id="g22"
           transform="translate(47.0509,628.1401)">
          <path
             d="M 0,0 -28.765,-825.81"
             style="fill:#6b6b6b;fill-opacity:1;fill-rule:nonzero;stroke:#ffffff;stroke-width:0.25;stroke-linecap:butt;stroke-linejoin:miter;stroke-miterlimit:10;stroke-dasharray:none;stroke-opacity:1"
             id="path24" />
        </g>
        <g
           id="g26"
           transform="translate(55.8846,627.8324)">
          <path
             d="M 0,0 -28.766,-825.81"
             style="fill:#6b6b6b;fill-opacity:1;fill-rule:nonzero;stroke:#ffffff;stroke-width:0.25;stroke-linecap:butt;stroke-linejoin:miter;stroke-miterlimit:10;stroke-dasharray:none;stroke-opacity:1"
             id="path28" />
        </g>
        <g
           id="g30"
           transform="translate(64.7183,627.5247)">
          <path
             d="M 0,0 -28.765,-825.81"
             style="fill:#6b6b6b;fill-opacity:1;fill-rule:nonzero;stroke:#ffffff;stroke-width:0.25;stroke-linecap:butt;stroke-linejoin:miter;stroke-miterlimit:10;stroke-dasharray:none;stroke-opacity:1"
             id="path32" />
        </g>
        <g
           id="g34"
           transform="translate(2.8824,629.6786)">
          <path
             d="M 0,0 -28.765,-825.81"
             style="fill:#6b6b6b;fill-opacity:1;fill-rule:nonzero;stroke:#ffffff;stroke-width:0.25;stroke-linecap:butt;stroke-linejoin:miter;stroke-miterlimit:10;stroke-dasharray:none;stroke-opacity:1"
             id="path36" />
        </g>
        <g
           id="g38"
           transform="translate(11.7161,629.3708)">
          <path
             d="M 0,0 -28.765,-825.81"
             style="fill:#6b6b6b;fill-opacity:1;fill-rule:nonzero;stroke:#ffffff;stroke-width:0.25;stroke-linecap:butt;stroke-linejoin:miter;stroke-miterlimit:10;stroke-dasharray:none;stroke-opacity:1"
             id="path40" />
        </g>
        <g
           id="g42"
           transform="translate(20.5498,629.0632)">
          <path
             d="M 0,0 -28.765,-825.81"
             style="fill:#6b6b6b;fill-opacity:1;fill-rule:nonzero;stroke:#ffffff;stroke-width:0.25;stroke-linecap:butt;stroke-linejoin:miter;stroke-miterlimit:10;stroke-dasharray:none;stroke-opacity:1"
             id="path44" />
        </g>
        <g
           id="g46"
           transform="translate(29.3835,628.7555)">
          <path
             d="M 0,0 -28.765,-825.81"
             style="fill:#6b6b6b;fill-opacity:1;fill-rule:nonzero;stroke:#ffffff;stroke-width:0.25;stroke-linecap:butt;stroke-linejoin:miter;stroke-miterlimit:10;stroke-dasharray:none;stroke-opacity:1"
             id="path48" />
        </g>
        <g
           id="g50"
           transform="translate(179.5562,623.5247)">
          <path
             d="M 0,0 -28.765,-825.81"
             style="fill:#6b6b6b;fill-opacity:1;fill-rule:nonzero;stroke:#ffffff;stroke-width:0.25;stroke-linecap:butt;stroke-linejoin:miter;stroke-miterlimit:10;stroke-dasharray:none;stroke-opacity:1"
             id="path52" />
        </g>
        <g
           id="g54"
           transform="translate(188.3899,623.217)">
          <path
             d="M 0,0 -28.765,-825.81"
             style="fill:#6b6b6b;fill-opacity:1;fill-rule:nonzero;stroke:#ffffff;stroke-width:0.25;stroke-linecap:butt;stroke-linejoin:miter;stroke-miterlimit:10;stroke-dasharray:none;stroke-opacity:1"
             id="path56" />
        </g>
        <g
           id="g58"
           transform="translate(197.2236,622.9093)">
          <path
             d="M 0,0 -28.765,-825.81"
             style="fill:#6b6b6b;fill-opacity:1;fill-rule:nonzero;stroke:#ffffff;stroke-width:0.25;stroke-linecap:butt;stroke-linejoin:miter;stroke-miterlimit:10;stroke-dasharray:none;stroke-opacity:1"
             id="path60" />
        </g>
        <g
           id="g62"
           transform="translate(206.0573,622.6016)">
          <path
             d="M 0,0 -28.765,-825.81"
             style="fill:#6b6b6b;fill-opacity:1;fill-rule:nonzero;stroke:#ffffff;stroke-width:0.25;stroke-linecap:butt;stroke-linejoin:miter;stroke-miterlimit:10;stroke-dasharray:none;stroke-opacity:1"
             id="path64" />
        </g>
        <g
           id="g66"
           transform="translate(144.2215,624.7555)">
          <path
             d="M 0,0 -28.765,-825.81"
             style="fill:#6b6b6b;fill-opacity:1;fill-rule:nonzero;stroke:#ffffff;stroke-width:0.25;stroke-linecap:butt;stroke-linejoin:miter;stroke-miterlimit:10;stroke-dasharray:none;stroke-opacity:1"
             id="path68" />
        </g>
        <g
           id="g70"
           transform="translate(153.0551,624.4478)">
          <path
             d="M 0,0 -28.765,-825.81"
             style="fill:#6b6b6b;fill-opacity:1;fill-rule:nonzero;stroke:#ffffff;stroke-width:0.25;stroke-linecap:butt;stroke-linejoin:miter;stroke-miterlimit:10;stroke-dasharray:none;stroke-opacity:1"
             id="path72" />
        </g>
        <g
           id="g74"
           transform="translate(161.8888,624.1401)">
          <path
             d="M 0,0 -28.765,-825.81"
             style="fill:#6b6b6b;fill-opacity:1;fill-rule:nonzero;stroke:#ffffff;stroke-width:0.25;stroke-linecap:butt;stroke-linejoin:miter;stroke-miterlimit:10;stroke-dasharray:none;stroke-opacity:1"
             id="path76" />
        </g>
        <g
           id="g78"
           transform="translate(170.7225,623.8324)">
          <path
             d="M 0,0 -28.765,-825.81"
             style="fill:#6b6b6b;fill-opacity:1;fill-rule:nonzero;stroke:#ffffff;stroke-width:0.25;stroke-linecap:butt;stroke-linejoin:miter;stroke-miterlimit:10;stroke-dasharray:none;stroke-opacity:1"
             id="path80" />
        </g>
        <g
           id="g82"
           transform="translate(108.8867,625.9863)">
          <path
             d="M 0,0 -28.765,-825.81"
             style="fill:#6b6b6b;fill-opacity:1;fill-rule:nonzero;stroke:#ffffff;stroke-width:0.25;stroke-linecap:butt;stroke-linejoin:miter;stroke-miterlimit:10;stroke-dasharray:none;stroke-opacity:1"
             id="path84" />
        </g>
        <g
           id="g86"
           transform="translate(117.7204,625.6785)">
          <path
             d="M 0,0 -28.765,-825.81"
             style="fill:#6b6b6b;fill-opacity:1;fill-rule:nonzero;stroke:#ffffff;stroke-width:0.25;stroke-linecap:butt;stroke-linejoin:miter;stroke-miterlimit:10;stroke-dasharray:none;stroke-opacity:1"
             id="path88" />
        </g>
        <g
           id="g90"
           transform="translate(126.5541,625.3708)">
          <path
             d="M 0,0 -28.765,-825.81"
             style="fill:#6b6b6b;fill-opacity:1;fill-rule:nonzero;stroke:#ffffff;stroke-width:0.25;stroke-linecap:butt;stroke-linejoin:miter;stroke-miterlimit:10;stroke-dasharray:none;stroke-opacity:1"
             id="path92" />
        </g>
        <g
           id="g94"
           transform="translate(135.3878,625.0632)">
          <path
             d="M 0,0 -28.765,-825.81"
             style="fill:#6b6b6b;fill-opacity:1;fill-rule:nonzero;stroke:#ffffff;stroke-width:0.25;stroke-linecap:butt;stroke-linejoin:miter;stroke-miterlimit:10;stroke-dasharray:none;stroke-opacity:1"
             id="path96" />
        </g>
        <g
           id="g98"
           transform="translate(73.552,627.217)">
          <path
             d="M 0,0 -28.765,-825.81"
             style="fill:#6b6b6b;fill-opacity:1;fill-rule:nonzero;stroke:#ffffff;stroke-width:0.25;stroke-linecap:butt;stroke-linejoin:miter;stroke-miterlimit:10;stroke-dasharray:none;stroke-opacity:1"
             id="path100" />
        </g>
        <g
           id="g102"
           transform="translate(82.3856,626.9093)">
          <path
             d="M 0,0 -28.765,-825.81"
             style="fill:#6b6b6b;fill-opacity:1;fill-rule:nonzero;stroke:#ffffff;stroke-width:0.25;stroke-linecap:butt;stroke-linejoin:miter;stroke-miterlimit:10;stroke-dasharray:none;stroke-opacity:1"
             id="path104" />
        </g>
        <g
           id="g106"
           transform="translate(91.2193,626.6016)">
          <path
             d="M 0,0 -28.765,-825.81"
             style="fill:#6b6b6b;fill-opacity:1;fill-rule:nonzero;stroke:#ffffff;stroke-width:0.25;stroke-linecap:butt;stroke-linejoin:miter;stroke-miterlimit:10;stroke-dasharray:none;stroke-opacity:1"
             id="path108" />
        </g>
        <g
           id="g110"
           transform="translate(100.053,626.2939)">
          <path
             d="M 0,0 -28.765,-825.81"
             style="fill:#6b6b6b;fill-opacity:1;fill-rule:nonzero;stroke:#ffffff;stroke-width:0.25;stroke-linecap:butt;stroke-linejoin:miter;stroke-miterlimit:10;stroke-dasharray:none;stroke-opacity:1"
             id="path112" />
        </g>
        <g
           id="g114"
           transform="translate(285.5605,619.8324)">
          <path
             d="M 0,0 -28.766,-825.81"
             style="fill:#6b6b6b;fill-opacity:1;fill-rule:nonzero;stroke:#ffffff;stroke-width:0.25;stroke-linecap:butt;stroke-linejoin:miter;stroke-miterlimit:10;stroke-dasharray:none;stroke-opacity:1"
             id="path116" />
        </g>
        <g
           id="g118"
           transform="translate(250.2257,621.0632)">
          <path
             d="M 0,0 -28.765,-825.81"
             style="fill:#6b6b6b;fill-opacity:1;fill-rule:nonzero;stroke:#ffffff;stroke-width:0.25;stroke-linecap:butt;stroke-linejoin:miter;stroke-miterlimit:10;stroke-dasharray:none;stroke-opacity:1"
             id="path120" />
        </g>
        <g
           id="g122"
           transform="translate(259.0594,620.7554)">
          <path
             d="M 0,0 -28.765,-825.81"
             style="fill:#6b6b6b;fill-opacity:1;fill-rule:nonzero;stroke:#ffffff;stroke-width:0.25;stroke-linecap:butt;stroke-linejoin:miter;stroke-miterlimit:10;stroke-dasharray:none;stroke-opacity:1"
             id="path124" />
        </g>
        <g
           id="g126"
           transform="translate(267.8931,620.4478)">
          <path
             d="M 0,0 -28.765,-825.81"
             style="fill:#6b6b6b;fill-opacity:1;fill-rule:nonzero;stroke:#ffffff;stroke-width:0.25;stroke-linecap:butt;stroke-linejoin:miter;stroke-miterlimit:10;stroke-dasharray:none;stroke-opacity:1"
             id="path128" />
        </g>
        <g
           id="g130"
           transform="translate(276.7267,620.1401)">
          <path
             d="M 0,0 -28.765,-825.81"
             style="fill:#6b6b6b;fill-opacity:1;fill-rule:nonzero;stroke:#ffffff;stroke-width:0.25;stroke-linecap:butt;stroke-linejoin:miter;stroke-miterlimit:10;stroke-dasharray:none;stroke-opacity:1"
             id="path132" />
        </g>
        <g
           id="g134"
           transform="translate(214.8909,622.2939)">
          <path
             d="M 0,0 -28.765,-825.81"
             style="fill:#6b6b6b;fill-opacity:1;fill-rule:nonzero;stroke:#ffffff;stroke-width:0.25;stroke-linecap:butt;stroke-linejoin:miter;stroke-miterlimit:10;stroke-dasharray:none;stroke-opacity:1"
             id="path136" />
        </g>
        <g
           id="g138"
           transform="translate(223.7246,621.9862)">
          <path
             d="M 0,0 -28.765,-825.81"
             style="fill:#6b6b6b;fill-opacity:1;fill-rule:nonzero;stroke:#ffffff;stroke-width:0.25;stroke-linecap:butt;stroke-linejoin:miter;stroke-miterlimit:10;stroke-dasharray:none;stroke-opacity:1"
             id="path140" />
        </g>
        <g
           id="g142"
           transform="translate(232.5583,621.6785)">
          <path
             d="M 0,0 -28.765,-825.81"
             style="fill:#6b6b6b;fill-opacity:1;fill-rule:nonzero;stroke:#ffffff;stroke-width:0.25;stroke-linecap:butt;stroke-linejoin:miter;stroke-miterlimit:10;stroke-dasharray:none;stroke-opacity:1"
             id="path144" />
        </g>
        <g
           id="g146"
           transform="translate(241.392,621.3708)">
          <path
             d="M 0,0 -28.765,-825.81"
             style="fill:#6b6b6b;fill-opacity:1;fill-rule:nonzero;stroke:#ffffff;stroke-width:0.25;stroke-linecap:butt;stroke-linejoin:miter;stroke-miterlimit:10;stroke-dasharray:none;stroke-opacity:1"
             id="path148" />
        </g>
      </g>
    </g>
    <g
       id="g150">
      <g
         id="g152"
         clip-path="url(#clipPath156)">
        <g
           id="g158"
           transform="translate(210.8248,434.8427)">
          <path
             d="m 0,0 c 1.29,-2.101 2.284,-5.41 2.998,-9.927 l 50.099,-384.248 c 1.168,-7.954 -5.602,-16.446 -20.291,-25.465 l -7.647,-4.695 c -17.396,-10.681 -27.933,-13.018 -31.614,-7.023 -1.476,2.403 -2.325,5.803 -2.549,10.203 l -9.688,97.494 c -126.044,126.6 -189.526,190.65 -190.449,192.154 -4.787,7.796 2.411,17.584 21.606,29.37 l 14.397,8.839 c 14.688,9.018 24.721,10.843 30.091,5.469 l 68.637,-72.448 c 4.695,-4.967 18.237,-21.632 40.617,-50.012 l 1.799,1.105 c -8.286,31.66 -13.432,53.482 -15.425,65.479 l -15.558,105.038 c -1.168,7.954 5.594,16.441 20.291,25.465 l 10.795,6.628 C -14.503,4.102 -3.866,6.297 0,0 Z"
             style="fill:none;stroke:#ffffff;stroke-width:0.5;stroke-linecap:butt;stroke-linejoin:miter;stroke-miterlimit:10;stroke-dasharray:none;stroke-opacity:1"
             id="path160" />
        </g>
      </g>
    </g>
  </g>
</svg>
