<svg xmlns="http://www.w3.org/2000/svg" width="1856.47" height="134.625" viewBox="0 0 1856.47 134.625"><defs><style>.a{fill:#f2f2f2;}</style></defs><g transform="translate(-2294.243 -7957.165)"><path class="a" d="M4103.37,7959l-22.691,36.839.009,0c-.938,1.523-1.786,2.825-2.527,3.88v0a18.377,18.377,0,0,1-1.967,2.446l-.007.01a6.9,6.9,0,0,1-2.5,1.59,8.561,8.561,0,0,1-2.953.492,8.36,8.36,0,0,1-2.909-.5h-.01a7.115,7.115,0,0,1-2.5-1.59,22.877,22.877,0,0,1-2.3-2.774c-.73-1.024-1.534-2.232-2.334-3.6l-21.407-36.637h-47.32l25.891,39.7c3.413,5.231,6.333,9.35,8.542,12.466.832,1.178,1.569,2.211,2.333,3.321,1.088,1.579,2.327,3.26,3.7,5.013,1.285,1.642,2.639,3.274,4.043,4.86l.053.05a57.99,57.99,0,0,0,4.163,4.515,37.675,37.675,0,0,0,3.823,3.258l1.088.794v56.619H4095.8v-56.619l1.085-.794a37.612,37.612,0,0,0,3.827-3.258,57.747,57.747,0,0,0,4.167-4.515l.052-.05c1.468-1.659,2.881-3.339,4.217-5.018s2.567-3.312,3.656-4.869c.933-1.335,2.288-3.363,3.948-5.861,1.868-2.8,4.14-6.211,6.709-9.96L4150.713,7959Z"/><path class="a" d="M3968.9,7985.547a32.565,32.565,0,0,0-8.773-13.032l-.03-.031a32.48,32.48,0,0,0-6.349-4.47,49.616,49.616,0,0,0-8.371-3.552h-.011a99.618,99.618,0,0,0-20.746-4.272,257.37,257.37,0,0,0-26.942-1.139h-21a72.938,72.938,0,0,0-16.477,1.629,31.228,31.228,0,0,0-11.016,4.641,17.88,17.88,0,0,0-6.229,8.2,37.341,37.341,0,0,0-2.179,13.673v102.552h45.215v-40.475h11.691A237.158,237.158,0,0,0,3924.6,8048a106.574,106.574,0,0,0,20.787-4.32c8.957-2.884,15.457-7.257,19.745-13.575,4.334-6.4,6.525-14.91,6.816-26.014h-.012A52.3,52.3,0,0,0,3968.9,7985.547Zm-47.493,31.9-.062.042a18.12,18.12,0,0,1-7.063,2.878,49.656,49.656,0,0,1-10.095.884h-18.2v-26.971c0-3,.615-5.128,2.426-6.68,1.642-1.4,4.034-2,7.642-2h8.132a50.072,50.072,0,0,1,10.095.885,18.153,18.153,0,0,1,7.063,2.874l.116.082a12.855,12.855,0,0,1,3.945,5.87,24.779,24.779,0,0,1,1.2,8.152C3926.608,8010.077,3924.872,8014.758,3921.41,8017.446Z"/><path class="a" d="M3804.138,7985.543a32.509,32.509,0,0,0-8.769-13.028l-.032-.031a32.07,32.07,0,0,0-6.339-4.466h-.013a49.392,49.392,0,0,0-8.367-3.556h-.013a99.491,99.491,0,0,0-20.741-4.272,257.355,257.355,0,0,0-26.939-1.139h-21a72.9,72.9,0,0,0-16.48,1.629,31.325,31.325,0,0,0-11.02,4.641,17.865,17.865,0,0,0-6.228,8.2,37.323,37.323,0,0,0-2.181,13.673v102.552h45.217v-40.475h11.692A237.081,237.081,0,0,0,3759.84,8048a106.556,106.556,0,0,0,20.79-4.32c8.955-2.884,15.455-7.257,19.743-13.575,4.335-6.4,6.524-14.91,6.81-26.014h-.007A52.244,52.244,0,0,0,3804.138,7985.543Zm-43.49,26.091a12.3,12.3,0,0,1-3.995,5.812l-.059.042a18.139,18.139,0,0,1-7.064,2.878,49.666,49.666,0,0,1-10.1.884h-18.2v-26.971c0-2.992.612-5.128,2.423-6.68,1.642-1.4,4.03-2,7.641-2h8.136a50.083,50.083,0,0,1,10.1.885,18.206,18.206,0,0,1,7.064,2.874l.115.082a12.854,12.854,0,0,1,3.942,5.87,28.4,28.4,0,0,1,0,16.321Z"/><path class="a" d="M3609.269,7977.145a38.05,38.05,0,0,0-10.7-11.984,39.473,39.473,0,0,0-14.005-6.2,102.5,102.5,0,0,0-38.286.011,38.95,38.95,0,0,0-13.867,6.178,38.42,38.42,0,0,0-10.7,11.957,92.11,92.11,0,0,0-8.32,19.664l-29.2,92.974h46.546l7.388-26.429.535-1.938h53.63l.557,1.909,7.722,26.458H3647l-29.429-92.961A93.551,93.551,0,0,0,3609.269,7977.145Zm-27.091,56.918H3545.29l.827-3.282,8.5-33.784.031-.094c1.01-3.476,2.083-5.785,3.706-7.336,1.814-1.723,3.994-2.36,7.077-2.36,3.012,0,5.194.635,7.023,2.351,1.641,1.544,2.758,3.862,3.763,7.345l.032.094,8.493,33.784.823,3.282Z"/><path class="a" d="M3408.23,8004.157v2.642H3351.5V7959H3306.28v130.6H3351.5V8039.01h56.729v50.584h45.217V7959H3408.23Z"/><path class="a" d="M3127.533,7960.677a31.133,31.133,0,0,0-11.019,4.609v0a17.828,17.828,0,0,0-6.23,8.193,37.443,37.443,0,0,0-2.175,13.68v74.561a37.419,37.419,0,0,0,2.179,13.688h.011a17.768,17.768,0,0,0,6.215,8.21,30.928,30.928,0,0,0,11.019,4.628,73.262,73.262,0,0,0,16.477,1.621H3225.3v-28.159h-61.2c-3.79,0-6.292-.471-8.008-1.666l0,.006c-2.066-1.441-2.763-3.486-2.763-6.463v-16.257H3210.4v-26.548h-57.074v-15.421c0-2.984.685-5.064,2.721-6.544,1.713-1.243,4.228-1.752,8.053-1.752h61.2v-28.016H3144.01A73.11,73.11,0,0,0,3127.533,7960.677Z"/><path class="a" d="M3048.391,8024.034l-7.409-2.141,7.174-2.839q9.654-3.824,14.364-10.582l-.006,0q4.691-6.73,4.686-16.627,0-9.178-3.892-15.41a25.994,25.994,0,0,0-11.773-9.769q-8.284-3.743-21.215-5.666a214.71,214.71,0,0,0-30.981-1.945h-21a74.073,74.073,0,0,0-16.486,1.611v0a30.855,30.855,0,0,0-11,4.625l-.021.009a17.475,17.475,0,0,0-6.226,8.144l.01,0a37.383,37.383,0,0,0-2.181,13.679v74.7a37.306,37.306,0,0,0,2.181,13.68l-.01,0a17.525,17.525,0,0,0,6.226,8.145l.021.008a30.934,30.934,0,0,0,11,4.624,73.513,73.513,0,0,0,16.486,1.619H3000.5c10.393,0,19.246-.349,27.017-1.127a127.011,127.011,0,0,0,20.812-3.67c8.8-2.358,15.409-5.919,19.758-10.9,4.266-4.886,6.43-11.284,6.43-19.4,0-8.166-2.114-14.583-6.348-19.524C3063.853,8030.254,3057.259,8026.6,3048.391,8024.034Zm-60.742-15.267v-19.72c0-2.907.586-4.943,2.443-6.436,1.619-1.3,3.983-1.829,7.623-1.829h6.629c7.517,0,12.608,1.014,15.939,3.231,3.732,2.479,5.2,6.145,5.2,11.216,0,5.832-1.4,9.886-5.028,12.6-3.365,2.517-8.488,3.575-16.112,3.575h-16.7Zm36.438,56.172,0,0c-3.329,2.267-8.393,3.225-15.9,3.225h-10.479c-3.65,0-6.024-.565-7.646-1.906-1.841-1.517-2.42-3.591-2.42-6.494v-23.058h20.545a47.607,47.607,0,0,1,9.46.812,17.011,17.011,0,0,1,6.629,2.667l.1.084a11.921,11.921,0,0,1,3.711,5.476,22.74,22.74,0,0,1,1.12,7.522C3029.214,8058.67,3027.779,8062.43,3024.087,8064.939Z"/><path class="a" d="M2737.006,7991.253h43.217v98.573h45.932v-98.573h38.733v-32.2H2737.006Z"/><path class="a" d="M2703.407,8030.306a64.912,64.912,0,0,0-12.7-9.2,169.732,169.732,0,0,0-19.823-9.589l-14.717-6.123a29.231,29.231,0,0,1-8.755-4.831,8.408,8.408,0,0,1-3.17-6.527c0-3.039,1.94-5.364,5.49-6.9a34.49,34.49,0,0,1,11.939-2.184c12.935-.508,33.295,5.184,45.7,8.769v-28.9c-11.292-3.637-26.593-6.33-41.762-7.141-14.038-.757-27.927.085-38.329,3.26-8.98,2.744-16.278,7.074-21.2,12.947a31.1,31.1,0,0,0-7.129,20.564,30.641,30.641,0,0,0,2.215,11.811,29.7,29.7,0,0,0,6.648,9.744l.008.013a61.838,61.838,0,0,0,12.541,9.287A170.591,170.591,0,0,0,2640.12,8035h.022l15.141,6.536c4.013,1.487,6.765,2.944,8.572,4.532l0,0a8.219,8.219,0,0,1,3.1,6.5,7.886,7.886,0,0,1-3.251,6.38,19.661,19.661,0,0,1-7.719,3.339c-9.473,2.258-27.77-.672-43.813-3.239-3.962-.634-7.78-1.24-11.32-1.75v26.407a151.387,151.387,0,0,0,46.1,7.244c15.39,0,29.857-2.479,41.276-7.435h.006c11.1-4.822,19.3-11.989,22.525-21.481a29.5,29.5,0,0,0,1.527-9.569,32.659,32.659,0,0,0-2.232-12.31A29.209,29.209,0,0,0,2703.407,8030.306Z"/><path class="a" d="M2519.819,8035.127c0,8.344-2.18,14.355-6.919,18.361-4.6,3.894-11.464,5.675-20.933,5.675-9.5,0-16.373-1.759-20.986-5.648-4.752-4-6.94-10.01-6.94-18.388V7959h-45.213V8033.9a91.652,91.652,0,0,0,1.741,18.7,51.836,51.836,0,0,0,5.152,14.413c4.483,8.127,11.839,14.273,22.5,18.4,10.946,4.243,25.384,6.375,43.745,6.375a172.053,172.053,0,0,0,24.83-1.6,85.151,85.151,0,0,0,18.9-4.773,50.717,50.717,0,0,0,13.621-7.773,35.68,35.68,0,0,0,8.824-10.509,52.446,52.446,0,0,0,5.148-14.507,92.012,92.012,0,0,0,1.744-18.723V7959h-45.214Z"/><path class="a" d="M2334.537,8047.758a20.137,20.137,0,0,1-1.748,8.823,12.061,12.061,0,0,1-5.64,5.722c-2.409,1.184-8.763,1.374-15.892,1.148-5.779-.18-12.022-.607-17.014-.992v25.783c30.431,4.392,52.125,4.133,66.118-2.116,13.772-6.148,20.106-18.476,20.106-38.368v-89.073h-45.93Z"/></g></svg>