<?xml version="1.0" encoding="UTF-8" standalone="no"?>
<!-- Created with Inkscape (http://www.inkscape.org/) -->

<svg
   version="1.1"
   id="svg2"
   width="507.11469"
   height="518.82532"
   viewBox="0 0 507.11469 518.82532"
   sodipodi:docname="h.ai"
   xmlns:inkscape="http://www.inkscape.org/namespaces/inkscape"
   xmlns:sodipodi="http://sodipodi.sourceforge.net/DTD/sodipodi-0.dtd"
   xmlns="http://www.w3.org/2000/svg"
   xmlns:svg="http://www.w3.org/2000/svg">
  <defs
     id="defs6">
    <clipPath
       clipPathUnits="userSpaceOnUse"
       id="clipPath16">
      <path
         d="M 35.021,381.864 22.184,374.54 C 3.843,364.077 -2.994,353.694 1.668,343.391 v 0 L 149.461,6.56 c 2.269,-3.977 6.4,-6.071 12.403,-6.295 v 0 c 5.996,-0.225 13.28,2.107 21.841,6.991 v 0 l 12.837,7.323 c 18.341,10.463 25.181,20.841 20.515,31.151 v 0 l -68.635,156.527 c 2.284,24.396 10.46,40.608 24.523,48.632 v 0 c 8.553,4.878 15.911,6.54 22.066,4.992 v 0 c 6.152,-1.563 11.412,-6.158 15.769,-13.795 v 0 c 1.57,-2.751 8.392,-17.905 20.461,-45.452 v 0 c 17.34,-40.348 27.936,-63.883 31.77,-70.602 v 0 c 11.509,-20.174 24.58,-32.268 39.223,-36.267 v 0 c 14.643,-4.01 31.133,-0.775 49.474,9.689 v 0 c 9.17,5.23 16.703,12.263 22.602,21.097 v 0 c 5.897,8.835 7.279,17.416 4.144,25.761 v 0 c -5.013,13.749 -9.17,23.531 -12.484,29.341 v 0 c -1.218,2.135 -2.232,3.38 -3.042,3.734 v 0 c -0.806,0.347 -1.979,0.086 -3.503,-0.783 v 0 c -0.917,-0.523 -2.417,-1.987 -4.491,-4.385 v 0 c -2.076,-2.399 -4.487,-4.383 -7.238,-5.952 v 0 c -4.891,-2.79 -9.104,-3.581 -12.637,-2.348 v 0 c -3.537,1.22 -6.78,4.43 -9.748,9.63 v 0 c -2.441,4.278 -10.965,23.116 -25.561,56.523 v 0 c -18.388,42.171 -28.892,65.559 -31.508,70.143 v 0 c -11.333,19.866 -24.674,31.7 -40.01,35.515 v 0 c -15.339,3.801 -33.255,-0.132 -53.73,-11.813 v 0 c -12.227,-6.975 -22.756,-16.934 -31.579,-29.866 v 0 C 134.096,283.116 128.089,269.86 124.892,256.29 v 0 L 69.263,382.561 c -2.263,3.968 -6.405,6.068 -12.401,6.294 v 0 c -0.259,0.009 -0.519,0.014 -0.782,0.014 v 0 c -5.852,0 -12.875,-2.337 -21.059,-7.005"
         id="path14" />
    </clipPath>
    <clipPath
       clipPathUnits="userSpaceOnUse"
       id="clipPath224">
      <path
         d="M 0,389.119 H 380.336 V 0 H 0 Z"
         id="path222" />
    </clipPath>
  </defs>
  <sodipodi:namedview
     id="namedview4"
     pagecolor="#ffffff"
     bordercolor="#000000"
     borderopacity="0.25"
     inkscape:showpageshadow="2"
     inkscape:pageopacity="0.0"
     inkscape:pagecheckerboard="0"
     inkscape:deskcolor="#d1d1d1" />
  <g
     id="g8"
     inkscape:groupmode="layer"
     inkscape:label="h"
     transform="matrix(1.3333333,0,0,-1.3333333,0,518.82533)">
    <g
       id="g10">
      <g
         id="g12"
         clip-path="url(#clipPath16)">
        <g
           id="g18"
           transform="translate(0.7899,714.4968)">
          <path
             d="M 0,0 -55.343,-824.455"
             style="fill:#6b6b6b;fill-opacity:1;fill-rule:nonzero;stroke:#ffffff;stroke-width:0.25;stroke-linecap:butt;stroke-linejoin:miter;stroke-miterlimit:10;stroke-dasharray:none;stroke-opacity:1"
             id="path20" />
        </g>
        <g
           id="g22"
           transform="translate(115.4395,706.8009)">
          <path
             d="M 0,0 -55.343,-824.455"
             style="fill:#6b6b6b;fill-opacity:1;fill-rule:nonzero;stroke:#ffffff;stroke-width:0.25;stroke-linecap:butt;stroke-linejoin:miter;stroke-miterlimit:10;stroke-dasharray:none;stroke-opacity:1"
             id="path24" />
        </g>
        <g
           id="g26"
           transform="translate(124.2587,706.2089)">
          <path
             d="M 0,0 -55.343,-824.455"
             style="fill:#6b6b6b;fill-opacity:1;fill-rule:nonzero;stroke:#ffffff;stroke-width:0.25;stroke-linecap:butt;stroke-linejoin:miter;stroke-miterlimit:10;stroke-dasharray:none;stroke-opacity:1"
             id="path28" />
        </g>
        <g
           id="g30"
           transform="translate(133.0779,705.6169)">
          <path
             d="M 0,0 -55.343,-824.455"
             style="fill:#6b6b6b;fill-opacity:1;fill-rule:nonzero;stroke:#ffffff;stroke-width:0.25;stroke-linecap:butt;stroke-linejoin:miter;stroke-miterlimit:10;stroke-dasharray:none;stroke-opacity:1"
             id="path32" />
        </g>
        <g
           id="g34"
           transform="translate(141.897,705.025)">
          <path
             d="M 0,0 -55.343,-824.455"
             style="fill:#6b6b6b;fill-opacity:1;fill-rule:nonzero;stroke:#ffffff;stroke-width:0.25;stroke-linecap:butt;stroke-linejoin:miter;stroke-miterlimit:10;stroke-dasharray:none;stroke-opacity:1"
             id="path36" />
        </g>
        <g
           id="g38"
           transform="translate(80.1627,709.1689)">
          <path
             d="M 0,0 -55.343,-824.455"
             style="fill:#6b6b6b;fill-opacity:1;fill-rule:nonzero;stroke:#ffffff;stroke-width:0.25;stroke-linecap:butt;stroke-linejoin:miter;stroke-miterlimit:10;stroke-dasharray:none;stroke-opacity:1"
             id="path40" />
        </g>
        <g
           id="g42"
           transform="translate(88.9819,708.5769)">
          <path
             d="M 0,0 -55.343,-824.455"
             style="fill:#6b6b6b;fill-opacity:1;fill-rule:nonzero;stroke:#ffffff;stroke-width:0.25;stroke-linecap:butt;stroke-linejoin:miter;stroke-miterlimit:10;stroke-dasharray:none;stroke-opacity:1"
             id="path44" />
        </g>
        <g
           id="g46"
           transform="translate(97.8011,707.9849)">
          <path
             d="M 0,0 -55.343,-824.455"
             style="fill:#6b6b6b;fill-opacity:1;fill-rule:nonzero;stroke:#ffffff;stroke-width:0.25;stroke-linecap:butt;stroke-linejoin:miter;stroke-miterlimit:10;stroke-dasharray:none;stroke-opacity:1"
             id="path48" />
        </g>
        <g
           id="g50"
           transform="translate(106.6203,707.3929)">
          <path
             d="M 0,0 -55.343,-824.455"
             style="fill:#6b6b6b;fill-opacity:1;fill-rule:nonzero;stroke:#ffffff;stroke-width:0.25;stroke-linecap:butt;stroke-linejoin:miter;stroke-miterlimit:10;stroke-dasharray:none;stroke-opacity:1"
             id="path52" />
        </g>
        <g
           id="g54"
           transform="translate(44.8859,711.5369)">
          <path
             d="M 0,0 -55.343,-824.455"
             style="fill:#6b6b6b;fill-opacity:1;fill-rule:nonzero;stroke:#ffffff;stroke-width:0.25;stroke-linecap:butt;stroke-linejoin:miter;stroke-miterlimit:10;stroke-dasharray:none;stroke-opacity:1"
             id="path56" />
        </g>
        <g
           id="g58"
           transform="translate(53.7051,710.9449)">
          <path
             d="M 0,0 -55.343,-824.455"
             style="fill:#6b6b6b;fill-opacity:1;fill-rule:nonzero;stroke:#ffffff;stroke-width:0.25;stroke-linecap:butt;stroke-linejoin:miter;stroke-miterlimit:10;stroke-dasharray:none;stroke-opacity:1"
             id="path60" />
        </g>
        <g
           id="g62"
           transform="translate(62.5243,710.3528)">
          <path
             d="M 0,0 -55.343,-824.455"
             style="fill:#6b6b6b;fill-opacity:1;fill-rule:nonzero;stroke:#ffffff;stroke-width:0.25;stroke-linecap:butt;stroke-linejoin:miter;stroke-miterlimit:10;stroke-dasharray:none;stroke-opacity:1"
             id="path64" />
        </g>
        <g
           id="g66"
           transform="translate(71.3435,709.7609)">
          <path
             d="M 0,0 -55.343,-824.455"
             style="fill:#6b6b6b;fill-opacity:1;fill-rule:nonzero;stroke:#ffffff;stroke-width:0.25;stroke-linecap:butt;stroke-linejoin:miter;stroke-miterlimit:10;stroke-dasharray:none;stroke-opacity:1"
             id="path68" />
        </g>
        <g
           id="g70"
           transform="translate(9.6091,713.9048)">
          <path
             d="M 0,0 -55.343,-824.455"
             style="fill:#6b6b6b;fill-opacity:1;fill-rule:nonzero;stroke:#ffffff;stroke-width:0.25;stroke-linecap:butt;stroke-linejoin:miter;stroke-miterlimit:10;stroke-dasharray:none;stroke-opacity:1"
             id="path72" />
        </g>
        <g
           id="g74"
           transform="translate(18.4283,713.3128)">
          <path
             d="M 0,0 -55.343,-824.455"
             style="fill:#6b6b6b;fill-opacity:1;fill-rule:nonzero;stroke:#ffffff;stroke-width:0.25;stroke-linecap:butt;stroke-linejoin:miter;stroke-miterlimit:10;stroke-dasharray:none;stroke-opacity:1"
             id="path76" />
        </g>
        <g
           id="g78"
           transform="translate(27.2475,712.7208)">
          <path
             d="M 0,0 -55.343,-824.455"
             style="fill:#6b6b6b;fill-opacity:1;fill-rule:nonzero;stroke:#ffffff;stroke-width:0.25;stroke-linecap:butt;stroke-linejoin:miter;stroke-miterlimit:10;stroke-dasharray:none;stroke-opacity:1"
             id="path80" />
        </g>
        <g
           id="g82"
           transform="translate(36.0667,712.1288)">
          <path
             d="M 0,0 -55.343,-824.455"
             style="fill:#6b6b6b;fill-opacity:1;fill-rule:nonzero;stroke:#ffffff;stroke-width:0.25;stroke-linecap:butt;stroke-linejoin:miter;stroke-miterlimit:10;stroke-dasharray:none;stroke-opacity:1"
             id="path84" />
        </g>
        <g
           id="g86"
           transform="translate(177.1738,702.657)">
          <path
             d="M 0,0 -55.343,-824.455"
             style="fill:#6b6b6b;fill-opacity:1;fill-rule:nonzero;stroke:#ffffff;stroke-width:0.25;stroke-linecap:butt;stroke-linejoin:miter;stroke-miterlimit:10;stroke-dasharray:none;stroke-opacity:1"
             id="path88" />
        </g>
        <g
           id="g90"
           transform="translate(185.993,702.065)">
          <path
             d="M 0,0 -55.343,-824.455"
             style="fill:#6b6b6b;fill-opacity:1;fill-rule:nonzero;stroke:#ffffff;stroke-width:0.25;stroke-linecap:butt;stroke-linejoin:miter;stroke-miterlimit:10;stroke-dasharray:none;stroke-opacity:1"
             id="path92" />
        </g>
        <g
           id="g94"
           transform="translate(194.8122,701.473)">
          <path
             d="M 0,0 -55.343,-824.455"
             style="fill:#6b6b6b;fill-opacity:1;fill-rule:nonzero;stroke:#ffffff;stroke-width:0.25;stroke-linecap:butt;stroke-linejoin:miter;stroke-miterlimit:10;stroke-dasharray:none;stroke-opacity:1"
             id="path96" />
        </g>
        <g
           id="g98"
           transform="translate(203.6314,700.881)">
          <path
             d="M 0,0 -55.343,-824.455"
             style="fill:#6b6b6b;fill-opacity:1;fill-rule:nonzero;stroke:#ffffff;stroke-width:0.25;stroke-linecap:butt;stroke-linejoin:miter;stroke-miterlimit:10;stroke-dasharray:none;stroke-opacity:1"
             id="path100" />
        </g>
        <g
           id="g102"
           transform="translate(159.5354,703.841)">
          <path
             d="M 0,0 -55.343,-824.455"
             style="fill:#6b6b6b;fill-opacity:1;fill-rule:nonzero;stroke:#ffffff;stroke-width:0.25;stroke-linecap:butt;stroke-linejoin:miter;stroke-miterlimit:10;stroke-dasharray:none;stroke-opacity:1"
             id="path104" />
        </g>
        <g
           id="g106"
           transform="translate(168.3546,703.249)">
          <path
             d="M 0,0 -55.343,-824.455"
             style="fill:#6b6b6b;fill-opacity:1;fill-rule:nonzero;stroke:#ffffff;stroke-width:0.25;stroke-linecap:butt;stroke-linejoin:miter;stroke-miterlimit:10;stroke-dasharray:none;stroke-opacity:1"
             id="path108" />
        </g>
        <g
           id="g110"
           transform="translate(150.7162,704.433)">
          <path
             d="M 0,0 -55.343,-824.455"
             style="fill:#6b6b6b;fill-opacity:1;fill-rule:nonzero;stroke:#ffffff;stroke-width:0.25;stroke-linecap:butt;stroke-linejoin:miter;stroke-miterlimit:10;stroke-dasharray:none;stroke-opacity:1"
             id="path112" />
        </g>
        <g
           id="g114"
           transform="translate(300.6426,694.3691)">
          <path
             d="M 0,0 -55.343,-824.455"
             style="fill:#6b6b6b;fill-opacity:1;fill-rule:nonzero;stroke:#ffffff;stroke-width:0.25;stroke-linecap:butt;stroke-linejoin:miter;stroke-miterlimit:10;stroke-dasharray:none;stroke-opacity:1"
             id="path116" />
        </g>
        <g
           id="g118"
           transform="translate(309.4618,693.7772)">
          <path
             d="M 0,0 -55.343,-824.455"
             style="fill:#6b6b6b;fill-opacity:1;fill-rule:nonzero;stroke:#ffffff;stroke-width:0.25;stroke-linecap:butt;stroke-linejoin:miter;stroke-miterlimit:10;stroke-dasharray:none;stroke-opacity:1"
             id="path120" />
        </g>
        <g
           id="g122"
           transform="translate(283.0042,695.5531)">
          <path
             d="M 0,0 -55.343,-824.455"
             style="fill:#6b6b6b;fill-opacity:1;fill-rule:nonzero;stroke:#ffffff;stroke-width:0.25;stroke-linecap:butt;stroke-linejoin:miter;stroke-miterlimit:10;stroke-dasharray:none;stroke-opacity:1"
             id="path124" />
        </g>
        <g
           id="g126"
           transform="translate(291.8234,694.9611)">
          <path
             d="M 0,0 -55.343,-824.455"
             style="fill:#6b6b6b;fill-opacity:1;fill-rule:nonzero;stroke:#ffffff;stroke-width:0.25;stroke-linecap:butt;stroke-linejoin:miter;stroke-miterlimit:10;stroke-dasharray:none;stroke-opacity:1"
             id="path128" />
        </g>
        <g
           id="g130"
           transform="translate(247.7274,697.9211)">
          <path
             d="M 0,0 -55.343,-824.455"
             style="fill:#6b6b6b;fill-opacity:1;fill-rule:nonzero;stroke:#ffffff;stroke-width:0.25;stroke-linecap:butt;stroke-linejoin:miter;stroke-miterlimit:10;stroke-dasharray:none;stroke-opacity:1"
             id="path132" />
        </g>
        <g
           id="g134"
           transform="translate(256.5466,697.3291)">
          <path
             d="M 0,0 -55.343,-824.455"
             style="fill:#6b6b6b;fill-opacity:1;fill-rule:nonzero;stroke:#ffffff;stroke-width:0.25;stroke-linecap:butt;stroke-linejoin:miter;stroke-miterlimit:10;stroke-dasharray:none;stroke-opacity:1"
             id="path136" />
        </g>
        <g
           id="g138"
           transform="translate(265.3658,696.7371)">
          <path
             d="M 0,0 -55.343,-824.455"
             style="fill:#6b6b6b;fill-opacity:1;fill-rule:nonzero;stroke:#ffffff;stroke-width:0.25;stroke-linecap:butt;stroke-linejoin:miter;stroke-miterlimit:10;stroke-dasharray:none;stroke-opacity:1"
             id="path140" />
        </g>
        <g
           id="g142"
           transform="translate(274.185,696.1451)">
          <path
             d="M 0,0 -55.343,-824.455"
             style="fill:#6b6b6b;fill-opacity:1;fill-rule:nonzero;stroke:#ffffff;stroke-width:0.25;stroke-linecap:butt;stroke-linejoin:miter;stroke-miterlimit:10;stroke-dasharray:none;stroke-opacity:1"
             id="path144" />
        </g>
        <g
           id="g146"
           transform="translate(212.4506,700.289)">
          <path
             d="M 0,0 -55.343,-824.455"
             style="fill:#6b6b6b;fill-opacity:1;fill-rule:nonzero;stroke:#ffffff;stroke-width:0.25;stroke-linecap:butt;stroke-linejoin:miter;stroke-miterlimit:10;stroke-dasharray:none;stroke-opacity:1"
             id="path148" />
        </g>
        <g
           id="g150"
           transform="translate(221.2698,699.697)">
          <path
             d="M 0,0 -55.343,-824.455"
             style="fill:#6b6b6b;fill-opacity:1;fill-rule:nonzero;stroke:#ffffff;stroke-width:0.25;stroke-linecap:butt;stroke-linejoin:miter;stroke-miterlimit:10;stroke-dasharray:none;stroke-opacity:1"
             id="path152" />
        </g>
        <g
           id="g154"
           transform="translate(230.089,699.105)">
          <path
             d="M 0,0 -55.343,-824.455"
             style="fill:#6b6b6b;fill-opacity:1;fill-rule:nonzero;stroke:#ffffff;stroke-width:0.25;stroke-linecap:butt;stroke-linejoin:miter;stroke-miterlimit:10;stroke-dasharray:none;stroke-opacity:1"
             id="path156" />
        </g>
        <g
           id="g158"
           transform="translate(238.9082,698.5131)">
          <path
             d="M 0,0 -55.343,-824.455"
             style="fill:#6b6b6b;fill-opacity:1;fill-rule:nonzero;stroke:#ffffff;stroke-width:0.25;stroke-linecap:butt;stroke-linejoin:miter;stroke-miterlimit:10;stroke-dasharray:none;stroke-opacity:1"
             id="path160" />
        </g>
        <g
           id="g162"
           transform="translate(424.1114,686.0812)">
          <path
             d="M 0,0 -55.343,-824.455"
             style="fill:#6b6b6b;fill-opacity:1;fill-rule:nonzero;stroke:#ffffff;stroke-width:0.25;stroke-linecap:butt;stroke-linejoin:miter;stroke-miterlimit:10;stroke-dasharray:none;stroke-opacity:1"
             id="path164" />
        </g>
        <g
           id="g166"
           transform="translate(432.9306,685.4893)">
          <path
             d="M 0,0 -55.343,-824.455"
             style="fill:#6b6b6b;fill-opacity:1;fill-rule:nonzero;stroke:#ffffff;stroke-width:0.25;stroke-linecap:butt;stroke-linejoin:miter;stroke-miterlimit:10;stroke-dasharray:none;stroke-opacity:1"
             id="path168" />
        </g>
        <g
           id="g170"
           transform="translate(388.8346,688.4492)">
          <path
             d="M 0,0 -55.343,-824.455"
             style="fill:#6b6b6b;fill-opacity:1;fill-rule:nonzero;stroke:#ffffff;stroke-width:0.25;stroke-linecap:butt;stroke-linejoin:miter;stroke-miterlimit:10;stroke-dasharray:none;stroke-opacity:1"
             id="path172" />
        </g>
        <g
           id="g174"
           transform="translate(397.6538,687.8572)">
          <path
             d="M 0,0 -55.343,-824.455"
             style="fill:#6b6b6b;fill-opacity:1;fill-rule:nonzero;stroke:#ffffff;stroke-width:0.25;stroke-linecap:butt;stroke-linejoin:miter;stroke-miterlimit:10;stroke-dasharray:none;stroke-opacity:1"
             id="path176" />
        </g>
        <g
           id="g178"
           transform="translate(406.473,687.2653)">
          <path
             d="M 0,0 -55.343,-824.455"
             style="fill:#6b6b6b;fill-opacity:1;fill-rule:nonzero;stroke:#ffffff;stroke-width:0.25;stroke-linecap:butt;stroke-linejoin:miter;stroke-miterlimit:10;stroke-dasharray:none;stroke-opacity:1"
             id="path180" />
        </g>
        <g
           id="g182"
           transform="translate(415.2922,686.6732)">
          <path
             d="M 0,0 -55.343,-824.455"
             style="fill:#6b6b6b;fill-opacity:1;fill-rule:nonzero;stroke:#ffffff;stroke-width:0.25;stroke-linecap:butt;stroke-linejoin:miter;stroke-miterlimit:10;stroke-dasharray:none;stroke-opacity:1"
             id="path184" />
        </g>
        <g
           id="g186"
           transform="translate(353.5578,690.8172)">
          <path
             d="M 0,0 -55.343,-824.455"
             style="fill:#6b6b6b;fill-opacity:1;fill-rule:nonzero;stroke:#ffffff;stroke-width:0.25;stroke-linecap:butt;stroke-linejoin:miter;stroke-miterlimit:10;stroke-dasharray:none;stroke-opacity:1"
             id="path188" />
        </g>
        <g
           id="g190"
           transform="translate(362.377,690.2252)">
          <path
             d="M 0,0 -55.343,-824.455"
             style="fill:#6b6b6b;fill-opacity:1;fill-rule:nonzero;stroke:#ffffff;stroke-width:0.25;stroke-linecap:butt;stroke-linejoin:miter;stroke-miterlimit:10;stroke-dasharray:none;stroke-opacity:1"
             id="path192" />
        </g>
        <g
           id="g194"
           transform="translate(371.1962,689.6332)">
          <path
             d="M 0,0 -55.343,-824.455"
             style="fill:#6b6b6b;fill-opacity:1;fill-rule:nonzero;stroke:#ffffff;stroke-width:0.25;stroke-linecap:butt;stroke-linejoin:miter;stroke-miterlimit:10;stroke-dasharray:none;stroke-opacity:1"
             id="path196" />
        </g>
        <g
           id="g198"
           transform="translate(380.0154,689.0412)">
          <path
             d="M 0,0 -55.343,-824.455"
             style="fill:#6b6b6b;fill-opacity:1;fill-rule:nonzero;stroke:#ffffff;stroke-width:0.25;stroke-linecap:butt;stroke-linejoin:miter;stroke-miterlimit:10;stroke-dasharray:none;stroke-opacity:1"
             id="path200" />
        </g>
        <g
           id="g202"
           transform="translate(318.281,693.1851)">
          <path
             d="M 0,0 -55.343,-824.455"
             style="fill:#6b6b6b;fill-opacity:1;fill-rule:nonzero;stroke:#ffffff;stroke-width:0.25;stroke-linecap:butt;stroke-linejoin:miter;stroke-miterlimit:10;stroke-dasharray:none;stroke-opacity:1"
             id="path204" />
        </g>
        <g
           id="g206"
           transform="translate(327.1002,692.5931)">
          <path
             d="M 0,0 -55.343,-824.455"
             style="fill:#6b6b6b;fill-opacity:1;fill-rule:nonzero;stroke:#ffffff;stroke-width:0.25;stroke-linecap:butt;stroke-linejoin:miter;stroke-miterlimit:10;stroke-dasharray:none;stroke-opacity:1"
             id="path208" />
        </g>
        <g
           id="g210"
           transform="translate(335.9194,692.0012)">
          <path
             d="M 0,0 -55.343,-824.455"
             style="fill:#6b6b6b;fill-opacity:1;fill-rule:nonzero;stroke:#ffffff;stroke-width:0.25;stroke-linecap:butt;stroke-linejoin:miter;stroke-miterlimit:10;stroke-dasharray:none;stroke-opacity:1"
             id="path212" />
        </g>
        <g
           id="g214"
           transform="translate(344.7386,691.4092)">
          <path
             d="M 0,0 -55.343,-824.455"
             style="fill:#6b6b6b;fill-opacity:1;fill-rule:nonzero;stroke:#ffffff;stroke-width:0.25;stroke-linecap:butt;stroke-linejoin:miter;stroke-miterlimit:10;stroke-dasharray:none;stroke-opacity:1"
             id="path216" />
        </g>
      </g>
    </g>
    <g
       id="g218">
      <g
         id="g220"
         clip-path="url(#clipPath224)">
        <g
           id="g226"
           transform="translate(56.8618,388.8546)">
          <path
             d="m 0,0 c 5.996,-0.225 10.138,-2.325 12.402,-6.294 l 55.628,-126.27 c 3.197,13.569 9.205,26.825 18.031,39.76 8.824,12.933 19.352,22.891 31.579,29.866 20.475,11.681 38.391,15.614 53.73,11.813 15.336,-3.814 28.677,-15.649 40.01,-35.514 2.616,-4.585 13.121,-27.972 31.509,-70.144 14.595,-33.407 23.12,-52.244 25.56,-56.522 2.967,-5.201 6.211,-8.411 9.748,-9.631 3.533,-1.232 7.746,-0.442 12.637,2.348 2.751,1.569 5.163,3.553 7.238,5.953 2.073,2.397 3.574,3.861 4.491,4.384 1.524,0.87 2.697,1.131 3.503,0.783 0.81,-0.354 1.824,-1.599 3.042,-3.733 3.315,-5.811 7.471,-15.594 12.485,-29.342 3.134,-8.344 1.752,-16.926 -4.145,-25.761 -5.899,-8.834 -13.432,-15.866 -22.601,-21.097 -18.342,-10.464 -34.832,-13.699 -49.474,-9.689 -14.644,3.999 -27.715,16.094 -39.224,36.267 -3.833,6.72 -14.43,30.254 -31.77,70.602 -12.069,27.547 -18.891,42.701 -20.461,45.452 -4.357,7.638 -9.617,12.232 -15.769,13.795 -6.154,1.548 -13.513,-0.113 -22.066,-4.993 -14.063,-8.022 -22.239,-24.234 -24.524,-48.63 l 68.636,-156.528 c 4.667,-10.309 -2.174,-20.687 -20.515,-31.15 l -12.837,-7.324 c -8.562,-4.884 -15.845,-7.216 -21.841,-6.991 -6.003,0.224 -10.134,2.318 -12.403,6.295 L -55.194,-45.464 c -4.662,10.303 2.175,20.686 20.516,31.15 l 12.837,7.323 C -13.288,-2.112 -6.005,0.22 0,0 Z"
             style="fill:none;stroke:#ffffff;stroke-width:0.5;stroke-linecap:butt;stroke-linejoin:miter;stroke-miterlimit:10;stroke-dasharray:none;stroke-opacity:1"
             id="path228" />
        </g>
      </g>
    </g>
  </g>
</svg>
