<?xml version="1.0" encoding="UTF-8" standalone="no"?>
<!-- Created with Inkscape (http://www.inkscape.org/) -->

<svg
   version="1.1"
   id="svg2"
   width="367.14932"
   height="570.41064"
   viewBox="0 0 367.14932 570.41064"
   sodipodi:docname="p.ai"
   xmlns:inkscape="http://www.inkscape.org/namespaces/inkscape"
   xmlns:sodipodi="http://sodipodi.sourceforge.net/DTD/sodipodi-0.dtd"
   xmlns="http://www.w3.org/2000/svg"
   xmlns:svg="http://www.w3.org/2000/svg">
  <defs
     id="defs6">
    <clipPath
       clipPathUnits="userSpaceOnUse"
       id="clipPath16">
      <path
         d="M 129.015,420.501 C 115.896,415.39 104.929,407.435 96.108,396.634 v 0 C 87.286,385.835 81.306,373.777 78.184,360.48 v 0 c -7.664,19.674 -16.745,27.465 -27.233,23.38 v 0 C 34.548,377.471 21.587,370.528 12.042,363.04 v 0 C 2.497,355.542 -1.252,349.17 0.79,343.93 v 0 c 1.789,-4.596 3.294,-7.977 4.515,-10.139 v 0 l 7.198,-17.023 c 4.089,-10.498 7.96,-22.392 11.635,-35.689 v 0 L 98.519,8.68 c 1.658,-4.257 5.441,-6.944 11.349,-8.041 v 0 c 5.899,-1.102 13.442,0.138 22.626,3.715 v 0 l 13.775,5.365 c 19.672,7.664 27.956,16.935 24.854,27.807 v 0 l -28.645,105.541 c 21.832,-6.606 41.925,-6.329 60.292,0.825 v 0 c 22.626,8.814 40.205,23.307 52.74,43.486 v 0 c 12.533,20.176 19.057,44.146 19.571,71.92 v 0 c 0.514,27.763 -5.297,57.224 -17.433,88.379 v 0 c -13.282,34.1 -31.402,57.35 -54.361,69.748 v 0 c -12.512,6.755 -25.561,10.133 -39.148,10.133 v 0 c -11.335,0 -23.044,-2.352 -35.124,-7.057 m -0.777,-226.333 c -3.675,13.297 -6.365,22.631 -8.079,28.01 v 0 c -5.628,21.22 -13.346,48.806 -23.168,82.746 v 0 c 4.337,24.722 13.559,39.839 27.662,45.332 v 0 c 27.213,10.6 47.53,-1.313 60.94,-35.744 v 0 c 12.136,-31.155 16.264,-57.023 12.384,-77.601 v 0 c -3.88,-20.584 -15.333,-34.579 -34.345,-41.985 v 0 c -6.088,-2.371 -12.262,-3.558 -18.526,-3.558 v 0 c -5.552,0 -11.175,0.933 -16.868,2.8"
         id="path14" />
    </clipPath>
    <clipPath
       clipPathUnits="userSpaceOnUse"
       id="clipPath192">
      <path
         d="M 0,427.808 H 275.362 V 0 H 0 Z"
         id="path190" />
    </clipPath>
  </defs>
  <sodipodi:namedview
     id="namedview4"
     pagecolor="#ffffff"
     bordercolor="#000000"
     borderopacity="0.25"
     inkscape:showpageshadow="2"
     inkscape:pageopacity="0.0"
     inkscape:pagecheckerboard="0"
     inkscape:deskcolor="#d1d1d1" />
  <g
     id="g8"
     inkscape:groupmode="layer"
     inkscape:label="p"
     transform="matrix(1.3333333,0,0,-1.3333333,0,570.41067)">
    <g
       id="g10">
      <g
         id="g12"
         clip-path="url(#clipPath16)">
        <g
           id="g18"
           transform="translate(32.0796,674.5834)">
          <path
             d="M 0,0 -175.501,-807.458"
             style="fill:#6b6b6b;fill-opacity:1;fill-rule:nonzero;stroke:#ffffff;stroke-width:0.25;stroke-linecap:butt;stroke-linejoin:miter;stroke-miterlimit:10;stroke-dasharray:none;stroke-opacity:1"
             id="path20" />
        </g>
        <g
           id="g22"
           transform="translate(40.717,672.7061)">
          <path
             d="M 0,0 -175.501,-807.458"
             style="fill:#6b6b6b;fill-opacity:1;fill-rule:nonzero;stroke:#ffffff;stroke-width:0.25;stroke-linecap:butt;stroke-linejoin:miter;stroke-miterlimit:10;stroke-dasharray:none;stroke-opacity:1"
             id="path24" />
        </g>
        <g
           id="g26"
           transform="translate(153.0029,648.3008)">
          <path
             d="M 0,0 -175.501,-807.458"
             style="fill:#6b6b6b;fill-opacity:1;fill-rule:nonzero;stroke:#ffffff;stroke-width:0.25;stroke-linecap:butt;stroke-linejoin:miter;stroke-miterlimit:10;stroke-dasharray:none;stroke-opacity:1"
             id="path28" />
        </g>
        <g
           id="g30"
           transform="translate(161.6403,646.4235)">
          <path
             d="M 0,0 -175.501,-807.458"
             style="fill:#6b6b6b;fill-opacity:1;fill-rule:nonzero;stroke:#ffffff;stroke-width:0.25;stroke-linecap:butt;stroke-linejoin:miter;stroke-miterlimit:10;stroke-dasharray:none;stroke-opacity:1"
             id="path32" />
        </g>
        <g
           id="g34"
           transform="translate(170.2777,644.5462)">
          <path
             d="M 0,0 -175.501,-807.458"
             style="fill:#6b6b6b;fill-opacity:1;fill-rule:nonzero;stroke:#ffffff;stroke-width:0.25;stroke-linecap:butt;stroke-linejoin:miter;stroke-miterlimit:10;stroke-dasharray:none;stroke-opacity:1"
             id="path36" />
        </g>
        <g
           id="g38"
           transform="translate(178.9151,642.6688)">
          <path
             d="M 0,0 -175.501,-807.458"
             style="fill:#6b6b6b;fill-opacity:1;fill-rule:nonzero;stroke:#ffffff;stroke-width:0.25;stroke-linecap:butt;stroke-linejoin:miter;stroke-miterlimit:10;stroke-dasharray:none;stroke-opacity:1"
             id="path40" />
        </g>
        <g
           id="g42"
           transform="translate(118.4534,655.8101)">
          <path
             d="M 0,0 -175.501,-807.458"
             style="fill:#6b6b6b;fill-opacity:1;fill-rule:nonzero;stroke:#ffffff;stroke-width:0.25;stroke-linecap:butt;stroke-linejoin:miter;stroke-miterlimit:10;stroke-dasharray:none;stroke-opacity:1"
             id="path44" />
        </g>
        <g
           id="g46"
           transform="translate(127.0908,653.9328)">
          <path
             d="M 0,0 -175.501,-807.458"
             style="fill:#6b6b6b;fill-opacity:1;fill-rule:nonzero;stroke:#ffffff;stroke-width:0.25;stroke-linecap:butt;stroke-linejoin:miter;stroke-miterlimit:10;stroke-dasharray:none;stroke-opacity:1"
             id="path48" />
        </g>
        <g
           id="g50"
           transform="translate(135.7282,652.0555)">
          <path
             d="M 0,0 -175.501,-807.458"
             style="fill:#6b6b6b;fill-opacity:1;fill-rule:nonzero;stroke:#ffffff;stroke-width:0.25;stroke-linecap:butt;stroke-linejoin:miter;stroke-miterlimit:10;stroke-dasharray:none;stroke-opacity:1"
             id="path52" />
        </g>
        <g
           id="g54"
           transform="translate(144.3655,650.1782)">
          <path
             d="M 0,0 -175.501,-807.458"
             style="fill:#6b6b6b;fill-opacity:1;fill-rule:nonzero;stroke:#ffffff;stroke-width:0.25;stroke-linecap:butt;stroke-linejoin:miter;stroke-miterlimit:10;stroke-dasharray:none;stroke-opacity:1"
             id="path56" />
        </g>
        <g
           id="g58"
           transform="translate(83.9039,663.3195)">
          <path
             d="M 0,0 -175.501,-807.458"
             style="fill:#6b6b6b;fill-opacity:1;fill-rule:nonzero;stroke:#ffffff;stroke-width:0.25;stroke-linecap:butt;stroke-linejoin:miter;stroke-miterlimit:10;stroke-dasharray:none;stroke-opacity:1"
             id="path60" />
        </g>
        <g
           id="g62"
           transform="translate(92.5413,661.4421)">
          <path
             d="M 0,0 -175.501,-807.458"
             style="fill:#6b6b6b;fill-opacity:1;fill-rule:nonzero;stroke:#ffffff;stroke-width:0.25;stroke-linecap:butt;stroke-linejoin:miter;stroke-miterlimit:10;stroke-dasharray:none;stroke-opacity:1"
             id="path64" />
        </g>
        <g
           id="g66"
           transform="translate(101.1786,659.5648)">
          <path
             d="M 0,0 -175.501,-807.458"
             style="fill:#6b6b6b;fill-opacity:1;fill-rule:nonzero;stroke:#ffffff;stroke-width:0.25;stroke-linecap:butt;stroke-linejoin:miter;stroke-miterlimit:10;stroke-dasharray:none;stroke-opacity:1"
             id="path68" />
        </g>
        <g
           id="g70"
           transform="translate(109.816,657.6874)">
          <path
             d="M 0,0 -175.501,-807.458"
             style="fill:#6b6b6b;fill-opacity:1;fill-rule:nonzero;stroke:#ffffff;stroke-width:0.25;stroke-linecap:butt;stroke-linejoin:miter;stroke-miterlimit:10;stroke-dasharray:none;stroke-opacity:1"
             id="path72" />
        </g>
        <g
           id="g74"
           transform="translate(49.3544,670.8287)">
          <path
             d="M 0,0 -175.501,-807.458"
             style="fill:#6b6b6b;fill-opacity:1;fill-rule:nonzero;stroke:#ffffff;stroke-width:0.25;stroke-linecap:butt;stroke-linejoin:miter;stroke-miterlimit:10;stroke-dasharray:none;stroke-opacity:1"
             id="path76" />
        </g>
        <g
           id="g78"
           transform="translate(57.9917,668.9514)">
          <path
             d="M 0,0 -175.501,-807.458"
             style="fill:#6b6b6b;fill-opacity:1;fill-rule:nonzero;stroke:#ffffff;stroke-width:0.25;stroke-linecap:butt;stroke-linejoin:miter;stroke-miterlimit:10;stroke-dasharray:none;stroke-opacity:1"
             id="path80" />
        </g>
        <g
           id="g82"
           transform="translate(66.6291,667.0741)">
          <path
             d="M 0,0 -175.501,-807.458"
             style="fill:#6b6b6b;fill-opacity:1;fill-rule:nonzero;stroke:#ffffff;stroke-width:0.25;stroke-linecap:butt;stroke-linejoin:miter;stroke-miterlimit:10;stroke-dasharray:none;stroke-opacity:1"
             id="path84" />
        </g>
        <g
           id="g86"
           transform="translate(75.2665,665.1968)">
          <path
             d="M 0,0 -175.501,-807.458"
             style="fill:#6b6b6b;fill-opacity:1;fill-rule:nonzero;stroke:#ffffff;stroke-width:0.25;stroke-linecap:butt;stroke-linejoin:miter;stroke-miterlimit:10;stroke-dasharray:none;stroke-opacity:1"
             id="path88" />
        </g>
        <g
           id="g90"
           transform="translate(291.201,618.2636)">
          <path
             d="M 0,0 -175.501,-807.458"
             style="fill:#6b6b6b;fill-opacity:1;fill-rule:nonzero;stroke:#ffffff;stroke-width:0.25;stroke-linecap:butt;stroke-linejoin:miter;stroke-miterlimit:10;stroke-dasharray:none;stroke-opacity:1"
             id="path92" />
        </g>
        <g
           id="g94"
           transform="translate(299.8384,616.3863)">
          <path
             d="M 0,0 -175.501,-807.458"
             style="fill:#6b6b6b;fill-opacity:1;fill-rule:nonzero;stroke:#ffffff;stroke-width:0.25;stroke-linecap:butt;stroke-linejoin:miter;stroke-miterlimit:10;stroke-dasharray:none;stroke-opacity:1"
             id="path96" />
        </g>
        <g
           id="g98"
           transform="translate(308.4758,614.5089)">
          <path
             d="M 0,0 -175.501,-807.458"
             style="fill:#6b6b6b;fill-opacity:1;fill-rule:nonzero;stroke:#ffffff;stroke-width:0.25;stroke-linecap:butt;stroke-linejoin:miter;stroke-miterlimit:10;stroke-dasharray:none;stroke-opacity:1"
             id="path100" />
        </g>
        <g
           id="g102"
           transform="translate(317.1132,612.6316)">
          <path
             d="M 0,0 -175.501,-807.458"
             style="fill:#6b6b6b;fill-opacity:1;fill-rule:nonzero;stroke:#ffffff;stroke-width:0.25;stroke-linecap:butt;stroke-linejoin:miter;stroke-miterlimit:10;stroke-dasharray:none;stroke-opacity:1"
             id="path104" />
        </g>
        <g
           id="g106"
           transform="translate(256.6515,625.7729)">
          <path
             d="M 0,0 -175.501,-807.458"
             style="fill:#6b6b6b;fill-opacity:1;fill-rule:nonzero;stroke:#ffffff;stroke-width:0.25;stroke-linecap:butt;stroke-linejoin:miter;stroke-miterlimit:10;stroke-dasharray:none;stroke-opacity:1"
             id="path108" />
        </g>
        <g
           id="g110"
           transform="translate(265.2889,623.8956)">
          <path
             d="M 0,0 -175.501,-807.458"
             style="fill:#6b6b6b;fill-opacity:1;fill-rule:nonzero;stroke:#ffffff;stroke-width:0.25;stroke-linecap:butt;stroke-linejoin:miter;stroke-miterlimit:10;stroke-dasharray:none;stroke-opacity:1"
             id="path112" />
        </g>
        <g
           id="g114"
           transform="translate(273.9263,622.0182)">
          <path
             d="M 0,0 -175.501,-807.458"
             style="fill:#6b6b6b;fill-opacity:1;fill-rule:nonzero;stroke:#ffffff;stroke-width:0.25;stroke-linecap:butt;stroke-linejoin:miter;stroke-miterlimit:10;stroke-dasharray:none;stroke-opacity:1"
             id="path116" />
        </g>
        <g
           id="g118"
           transform="translate(282.5636,620.1409)">
          <path
             d="M 0,0 -175.501,-807.458"
             style="fill:#6b6b6b;fill-opacity:1;fill-rule:nonzero;stroke:#ffffff;stroke-width:0.25;stroke-linecap:butt;stroke-linejoin:miter;stroke-miterlimit:10;stroke-dasharray:none;stroke-opacity:1"
             id="path120" />
        </g>
        <g
           id="g122"
           transform="translate(222.102,633.2822)">
          <path
             d="M 0,0 -175.501,-807.458"
             style="fill:#6b6b6b;fill-opacity:1;fill-rule:nonzero;stroke:#ffffff;stroke-width:0.25;stroke-linecap:butt;stroke-linejoin:miter;stroke-miterlimit:10;stroke-dasharray:none;stroke-opacity:1"
             id="path124" />
        </g>
        <g
           id="g126"
           transform="translate(230.7394,631.4049)">
          <path
             d="M 0,0 -175.501,-807.458"
             style="fill:#6b6b6b;fill-opacity:1;fill-rule:nonzero;stroke:#ffffff;stroke-width:0.25;stroke-linecap:butt;stroke-linejoin:miter;stroke-miterlimit:10;stroke-dasharray:none;stroke-opacity:1"
             id="path128" />
        </g>
        <g
           id="g130"
           transform="translate(239.3767,629.5275)">
          <path
             d="M 0,0 -175.501,-807.458"
             style="fill:#6b6b6b;fill-opacity:1;fill-rule:nonzero;stroke:#ffffff;stroke-width:0.25;stroke-linecap:butt;stroke-linejoin:miter;stroke-miterlimit:10;stroke-dasharray:none;stroke-opacity:1"
             id="path132" />
        </g>
        <g
           id="g134"
           transform="translate(248.0141,627.6502)">
          <path
             d="M 0,0 -175.501,-807.458"
             style="fill:#6b6b6b;fill-opacity:1;fill-rule:nonzero;stroke:#ffffff;stroke-width:0.25;stroke-linecap:butt;stroke-linejoin:miter;stroke-miterlimit:10;stroke-dasharray:none;stroke-opacity:1"
             id="path136" />
        </g>
        <g
           id="g138"
           transform="translate(187.5524,640.7915)">
          <path
             d="M 0,0 -175.501,-807.458"
             style="fill:#6b6b6b;fill-opacity:1;fill-rule:nonzero;stroke:#ffffff;stroke-width:0.25;stroke-linecap:butt;stroke-linejoin:miter;stroke-miterlimit:10;stroke-dasharray:none;stroke-opacity:1"
             id="path140" />
        </g>
        <g
           id="g142"
           transform="translate(196.1898,638.9142)">
          <path
             d="M 0,0 -175.501,-807.458"
             style="fill:#6b6b6b;fill-opacity:1;fill-rule:nonzero;stroke:#ffffff;stroke-width:0.25;stroke-linecap:butt;stroke-linejoin:miter;stroke-miterlimit:10;stroke-dasharray:none;stroke-opacity:1"
             id="path144" />
        </g>
        <g
           id="g146"
           transform="translate(204.8272,637.0369)">
          <path
             d="M 0,0 -175.501,-807.458"
             style="fill:#6b6b6b;fill-opacity:1;fill-rule:nonzero;stroke:#ffffff;stroke-width:0.25;stroke-linecap:butt;stroke-linejoin:miter;stroke-miterlimit:10;stroke-dasharray:none;stroke-opacity:1"
             id="path148" />
        </g>
        <g
           id="g150"
           transform="translate(213.4646,635.1595)">
          <path
             d="M 0,0 -175.501,-807.458"
             style="fill:#6b6b6b;fill-opacity:1;fill-rule:nonzero;stroke:#ffffff;stroke-width:0.25;stroke-linecap:butt;stroke-linejoin:miter;stroke-miterlimit:10;stroke-dasharray:none;stroke-opacity:1"
             id="path152" />
        </g>
        <g
           id="g154"
           transform="translate(360.3001,603.245)">
          <path
             d="M 0,0 -175.501,-807.458"
             style="fill:#6b6b6b;fill-opacity:1;fill-rule:nonzero;stroke:#ffffff;stroke-width:0.25;stroke-linecap:butt;stroke-linejoin:miter;stroke-miterlimit:10;stroke-dasharray:none;stroke-opacity:1"
             id="path156" />
        </g>
        <g
           id="g158"
           transform="translate(368.9375,601.3677)">
          <path
             d="M 0,0 -175.501,-807.458"
             style="fill:#6b6b6b;fill-opacity:1;fill-rule:nonzero;stroke:#ffffff;stroke-width:0.25;stroke-linecap:butt;stroke-linejoin:miter;stroke-miterlimit:10;stroke-dasharray:none;stroke-opacity:1"
             id="path160" />
        </g>
        <g
           id="g162"
           transform="translate(377.5748,599.4903)">
          <path
             d="M 0,0 -175.501,-807.458"
             style="fill:#6b6b6b;fill-opacity:1;fill-rule:nonzero;stroke:#ffffff;stroke-width:0.25;stroke-linecap:butt;stroke-linejoin:miter;stroke-miterlimit:10;stroke-dasharray:none;stroke-opacity:1"
             id="path164" />
        </g>
        <g
           id="g166"
           transform="translate(386.2122,597.613)">
          <path
             d="M 0,0 -175.501,-807.458"
             style="fill:#6b6b6b;fill-opacity:1;fill-rule:nonzero;stroke:#ffffff;stroke-width:0.25;stroke-linecap:butt;stroke-linejoin:miter;stroke-miterlimit:10;stroke-dasharray:none;stroke-opacity:1"
             id="path168" />
        </g>
        <g
           id="g170"
           transform="translate(325.7505,610.7543)">
          <path
             d="M 0,0 -175.501,-807.458"
             style="fill:#6b6b6b;fill-opacity:1;fill-rule:nonzero;stroke:#ffffff;stroke-width:0.25;stroke-linecap:butt;stroke-linejoin:miter;stroke-miterlimit:10;stroke-dasharray:none;stroke-opacity:1"
             id="path172" />
        </g>
        <g
           id="g174"
           transform="translate(334.3879,608.877)">
          <path
             d="M 0,0 -175.501,-807.458"
             style="fill:#6b6b6b;fill-opacity:1;fill-rule:nonzero;stroke:#ffffff;stroke-width:0.25;stroke-linecap:butt;stroke-linejoin:miter;stroke-miterlimit:10;stroke-dasharray:none;stroke-opacity:1"
             id="path176" />
        </g>
        <g
           id="g178"
           transform="translate(343.0253,606.9996)">
          <path
             d="M 0,0 -175.501,-807.458"
             style="fill:#6b6b6b;fill-opacity:1;fill-rule:nonzero;stroke:#ffffff;stroke-width:0.25;stroke-linecap:butt;stroke-linejoin:miter;stroke-miterlimit:10;stroke-dasharray:none;stroke-opacity:1"
             id="path180" />
        </g>
        <g
           id="g182"
           transform="translate(351.6627,605.1223)">
          <path
             d="M 0,0 -175.501,-807.458"
             style="fill:#6b6b6b;fill-opacity:1;fill-rule:nonzero;stroke:#ffffff;stroke-width:0.25;stroke-linecap:butt;stroke-linejoin:miter;stroke-miterlimit:10;stroke-dasharray:none;stroke-opacity:1"
             id="path184" />
        </g>
      </g>
    </g>
    <g
       id="g186">
      <g
         id="g188"
         clip-path="url(#clipPath192)">
        <g
           id="g194"
           transform="translate(197.9778,236.9116)">
          <path
             d="m 0,0 c 3.88,20.577 -0.248,46.445 -12.384,77.601 -13.411,34.43 -33.728,46.344 -60.941,35.744 -14.103,-5.494 -23.325,-20.611 -27.662,-45.332 9.823,-33.941 17.541,-61.526 23.168,-82.746 1.714,-5.379 4.404,-14.713 8.079,-28.011 12.115,-3.972 23.91,-3.715 35.394,0.758 C -15.334,-34.58 -3.881,-20.585 0,0 Z M 5.31,180.514 C 28.269,168.116 46.388,144.865 59.671,110.765 71.807,79.61 77.618,50.149 77.103,22.386 76.589,-5.387 70.066,-29.358 57.533,-49.533 44.997,-69.712 27.419,-84.206 4.792,-93.02 c -18.367,-7.154 -38.459,-7.431 -60.292,-0.825 l 28.645,-105.54 c 3.102,-10.873 -5.181,-20.144 -24.854,-27.807 l -13.774,-5.365 c -9.185,-3.578 -16.728,-4.817 -22.627,-3.716 -5.908,1.097 -9.691,3.784 -11.349,8.041 l -74.38,272.399 c -3.676,13.298 -7.547,25.192 -11.636,35.689 l -7.198,17.024 c -1.22,2.162 -2.725,5.542 -4.515,10.138 -2.041,5.241 1.707,11.613 11.252,19.11 9.545,7.489 22.506,14.431 38.909,20.82 10.488,4.086 19.569,-3.706 27.233,-23.38 3.122,13.297 9.103,25.355 17.924,36.155 8.822,10.8 19.788,18.755 32.908,23.866 26.558,10.345 51.32,9.314 74.272,-3.075 z"
             style="fill:none;stroke:#ffffff;stroke-width:0.5;stroke-linecap:butt;stroke-linejoin:miter;stroke-miterlimit:10;stroke-dasharray:none;stroke-opacity:1"
             id="path196" />
        </g>
      </g>
    </g>
  </g>
</svg>
