<?xml version="1.0" encoding="UTF-8" standalone="no"?>
<!-- Created with Inkscape (http://www.inkscape.org/) -->

<svg
   version="1.1"
   id="svg2"
   width="1186.72"
   height="230.89732"
   viewBox="0 0 1186.72 230.89732"
   sodipodi:docname="高兴就好.ai"
   xmlns:inkscape="http://www.inkscape.org/namespaces/inkscape"
   xmlns:sodipodi="http://sodipodi.sourceforge.net/DTD/sodipodi-0.dtd"
   xmlns="http://www.w3.org/2000/svg"
   xmlns:svg="http://www.w3.org/2000/svg">
  <defs
     id="defs6">
    <clipPath
       clipPathUnits="userSpaceOnUse"
       id="clipPath16">
      <path
         d="M 0,173.173 H 890.039 V 0 H 0 Z"
         id="path14" />
    </clipPath>
  </defs>
  <sodipodi:namedview
     id="namedview4"
     pagecolor="#ffffff"
     bordercolor="#000000"
     borderopacity="0.25"
     inkscape:showpageshadow="2"
     inkscape:pageopacity="0.0"
     inkscape:pagecheckerboard="0"
     inkscape:deskcolor="#d1d1d1" />
  <g
     id="g8"
     inkscape:groupmode="layer"
     inkscape:label="高兴就好"
     transform="matrix(1.3333333,0,0,-1.3333333,0,230.89733)">
    <g
       id="g10">
      <g
         id="g12"
         clip-path="url(#clipPath16)">
        <g
           id="g18"
           transform="translate(89.4521,159.6084)">
          <path
             d="M 0,0 V 12.453 H 24.905 V 0 -3.894 h 76.998 12.452 V -28.799 H 101.903 62.359 v -26.606 c 0,-6.876 -5.575,-12.453 -12.454,-12.453 h -74.91 c -6.876,0 -12.452,5.577 -12.452,12.453 v 26.606 h -39.544 -12.451 v 24.905 h 12.451 l 77.001,0 z m 378.366,-33.777 h 70.806 c 6.878,0 12.454,-5.574 12.454,-12.453 v -37.335 c 0,-6.877 -5.576,-12.453 -12.454,-12.453 h -22.95 v -45.928 -12.454 h -24.906 v 12.454 45.928 h -22.95 c -6.879,0 -12.453,5.576 -12.453,12.453 v 37.335 c 0,6.879 5.574,12.453 12.453,12.453 m 58.355,-24.906 h -45.903 v -12.43 h 45.903 z m -116.135,-73.151 10.9,-5.983 -11.966,-21.791 -10.899,5.982 c -12.116,6.682 -22.271,15.054 -30.747,23.868 -8.348,8.681 -15.014,17.731 -20.302,25.977 l -6.712,10.458 20.917,13.425 6.713,-10.458 c 4.571,-7.129 10.272,-14.89 17.283,-22.181 6.883,-7.157 15.087,-13.931 24.813,-19.297 M 37.454,-28.799 h -50.006 v -14.152 h 50.006 z m 246.341,29.981 5.885,10.943 21.89,-11.772 -5.885,-10.943 -16.122,-29.843 -5.887,-10.945 -21.89,11.772 5.887,10.945 z m -123.159,-11.772 -5.887,10.943 21.89,11.772 5.885,-10.943 16.121,-29.843 5.886,-10.945 -21.888,-11.772 -5.887,10.945 z m 215.952,-134.08 -9.581,-7.879 -15.762,19.164 9.583,7.88 c 3.001,2.466 5.49,4.897 7.076,7.236 0.956,1.41 1.521,2.732 1.521,3.913 v 12.453 h 24.905 v -12.453 c 0,-6.459 -2.187,-12.357 -5.898,-17.825 -3.083,-4.54 -7.179,-8.656 -11.844,-12.489 m -218.496,-8.956 -10.898,-5.982 -11.965,21.791 10.896,5.983 c 9.73,5.366 17.935,12.14 24.816,19.297 7.011,7.291 12.713,15.052 17.284,22.181 l 6.712,10.458 20.918,-13.425 -6.715,-10.458 c -5.286,-8.246 -11.952,-17.296 -20.299,-25.977 -8.478,-8.814 -18.633,-17.186 -30.749,-23.868 M 527.711,-1.494 v 12.453 h 24.905 V -1.494 -13.531 -25.983 h -24.905 v 12.452 z m 169.547,-127.617 10.119,-7.2 -14.399,-20.235 -10.118,7.198 c -10.472,7.46 -19.71,14.784 -27.621,22.403 -9.228,-7.423 -20.462,-14.971 -34.089,-22.826 l -10.75,-6.178 -12.355,21.501 10.75,6.177 c 12.236,7.053 22.201,13.702 30.261,20.118 -9.135,13.258 -14.534,27.808 -15.738,45.161 v 0.828 l 0.013,20.091 H 610.68 598.227 v 24.906 h 12.453 12.67 l 0.013,18.329 v 12.403 h 24.805 V 1.162 l -0.011,-18.329 h 35.564 v -0.038 c 0.193,0 0.387,-0.003 0.582,-0.013 6.849,-0.321 12.142,-6.135 11.822,-12.987 -0.361,-7.136 -0.758,-13.486 -1.172,-20.115 l -0.505,-8.179 c -1.014,-16.752 -5.927,-32.043 -17.95,-47.4 -1.028,-1.315 -2.11,-2.626 -3.245,-3.936 6.765,-6.401 14.809,-12.727 24.005,-19.276 m -49.117,87.038 -0.013,-19.272 c 0.762,-10.981 3.835,-20.421 8.995,-29.046 8.369,10.779 11.805,21.548 12.518,33.351 l 0.505,8.178 0.423,6.789 z m 66.935,-35.394 h -12.452 v 24.903 h 12.452 33.968 c 0.122,0.462 0.274,0.921 0.456,1.375 l 15.489,38.814 H 716.283 703.83 v 24.906 h 12.453 67.03 c 6.875,0 12.451,-5.577 12.451,-12.453 0,-2.044 -0.491,-3.973 -1.363,-5.674 l -18.745,-46.968 h 12.478 12.453 v -24.903 h -12.453 -14.685 l 0.054,-64.742 c 0,-6.851 -5.553,-12.404 -12.403,-12.404 -15.458,-0.05 -12.566,-0.078 -17.024,-0.078 -4.463,0 -1.564,0.028 -17.028,0.078 h -12.402 v 24.808 h 12.402 c 4.111,-0.013 1.218,0.02 17.028,0.02 h 4.609 l -0.043,52.318 z M 565.35,-130.772 h 12.453 v -24.905 H 565.35 554.566 c -8.912,0 -17.009,3.67 -22.884,9.588 -5.86,5.904 -9.495,14.024 -9.495,22.938 v 59.319 7.772 h -5.788 l -0.072,-27.374 v -0.293 c -0.482,-18.324 -6.777,-31.907 -16.514,-42.76 -9.129,-10.177 -20.963,-17.457 -33.65,-23.971 l -7.228,-3.712 -6.295,5.171 c -5.001,4.11 -10.657,10.03 -14.764,16.078 -4.085,6.021 -6.869,12.538 -6.869,18.643 v 12.453 h 24.905 v -12.453 c 0,-0.756 1.011,-2.545 2.493,-4.73 1.204,-1.776 2.631,-3.551 4.145,-5.223 7.307,4.191 13.844,8.782 18.779,14.283 6.001,6.69 9.885,15.184 10.19,26.806 h 0.002 l 0.071,27.082 h -8.876 -12.453 v 24.904 h 12.453 8.943 l 0.083,31.149 v 12.404 h 24.805 V -0.007 l -0.082,-31.149 h 37.094 12.453 V -56.06 h -12.453 -6.466 v -7.772 -59.319 c 0,-2.14 0.839,-4.06 2.198,-5.428 1.344,-1.353 3.211,-2.193 5.275,-2.193 z M 220.706,-0.206 v 12.453 h 24.905 V -0.206 -36.505 -48.958 h -24.905 v 12.453 z M 62.359,-101.999 v -26.463 c 0,-6.877 -5.575,-12.452 -12.454,-12.452 h -74.91 c -6.876,0 -12.452,5.575 -12.452,12.452 v 26.463 h -16.766 v -39.977 -12.453 h -24.905 v 12.453 52.429 c 0,6.877 5.575,12.453 12.453,12.453 H 91.577 c 6.878,0 12.453,-5.576 12.453,-12.453 v -52.429 -12.453 H 79.126 v 12.453 39.977 z m -74.91,-14.009 h 50.006 v 14.009 H -12.551 Z M 401.315,-0.137 V 12.315 H 426.22 V -0.137 -3.894 h 34.339 12.452 v -24.905 h -12.452 -93.583 -12.451 v 24.905 h 12.451 34.339 z M 318.298,-53.3 h 12.453 V -78.206 H 318.298 148.016 135.565 V -53.3 h 12.451 z"
             style="fill-opacity:1;fill-rule:nonzero;stroke:none"
             id="path20" />
        </g>
      </g>
    </g>
  </g>
</svg>
