<?xml version="1.0" standalone="no"?><!DOCTYPE svg PUBLIC "-//W3C//DTD SVG 1.1//EN" "http://www.w3.org/Graphics/SVG/1.1/DTD/svg11.dtd"><svg t="1670830099176" class="icon" viewBox="0 0 1024 1024" version="1.1" xmlns="http://www.w3.org/2000/svg" p-id="1301" xmlns:xlink="http://www.w3.org/1999/xlink" width="200" height="200"><path d="M919.8 272.4L529.5 68.9c-12.5-6.5-27.3-6.6-39.9-0.1l-390 200.4C85.1 276.6 76 291.5 76 307.7v414.4c0 16.4 9.3 31.5 24 38.8l390.2 194.5c12.2 6.1 26.5 6.1 38.7 0L919 760.9c14.7-7.3 24-22.4 24-38.8V310.9c0.1-16.2-8.9-31-23.2-38.5z m-413.5 196l-146.5-72.1 331.8-177.7 143.1 74.6-328.4 175.2z m3.1-344.8l120.1 62.7L296 364.9l-130.9-64.4 344.3-176.9zM133.8 349.5l138.4 68.1v152c0 16 12.9 28.9 28.9 28.9 16 0 28.9-12.9 28.9-28.9V446.1l150.6 74.1v366l-346.8-173V349.5z m404.6 536.6V516.7l346.8-184.9v381.4L538.4 886.1z" p-id="1302"></path></svg>