<?xml version="1.0" standalone="no"?><!DOCTYPE svg PUBLIC "-//W3C//DTD SVG 1.1//EN" "http://www.w3.org/Graphics/SVG/1.1/DTD/svg11.dtd"><svg class="icon" width="32px" height="32.00px" viewBox="0 0 1024 1024" version="1.1" xmlns="http://www.w3.org/2000/svg"><path fill="#000000" d="M1024 18.285714a18.285714 18.285714 0 0 0-18.285714-18.285714H777.142857a18.285714 18.285714 0 0 0-12.891428 31.268571l53.211428 53.302858-176.091428 203.245714a18.285714 18.285714 0 0 1-18.285715 5.76L288 211.748571a52.48 52.48 0 0 0-12.982857-1.462857 54.857143 54.857143 0 0 0-40.045714 17.371429L19.931429 460.8A54.857143 54.857143 0 0 0 0 502.857143v429.714286a91.428571 91.428571 0 0 0 91.428571 91.428571h841.142858a91.428571 91.428571 0 0 0 91.428571-91.428571V252.708571z m-65.371429 940.16A36.571429 36.571429 0 0 1 932.571429 969.142857H91.428571a36.571429 36.571429 0 0 1-36.571428-36.571428V502.857143l2.834286-2.377143 2.56-2.742857L275.017143 265.142857l335.177143 82.285714a74.24 74.24 0 0 0 17.462857 2.102858 72.502857 72.502857 0 0 0 54.857143-25.234286L859.428571 120.502857 892.617143 82.285714l-27.428572-27.428571H969.142857v877.714286a36.571429 36.571429 0 0 1-10.697143 25.874285zM292.571429 480.091429a36.571429 36.571429 0 0 0-36.571429 36.571428v365.714286a36.571429 36.571429 0 0 0 73.142857 0v-365.714286a36.571429 36.571429 0 0 0-36.571428-36.571428z m0 402.285714v-365.714286zM512 553.234286a36.571429 36.571429 0 0 0-36.571429 36.571428v292.571429a36.571429 36.571429 0 0 0 73.142858 0v-292.571429a36.571429 36.571429 0 0 0-36.571429-36.571428z m0 329.142857v-292.571429zM731.428571 406.948571a36.571429 36.571429 0 0 0-36.571428 36.571429v438.857143a36.571429 36.571429 0 0 0 73.142857 0v-438.857143a36.571429 36.571429 0 0 0-36.571429-36.571429z m0 475.428572v-438.857143z" /></svg>