<?xml version="1.0" encoding="UTF-8" standalone="no"?>
<!-- Created with Inkscape (http://www.inkscape.org/) -->

<svg
   version="1.1"
   id="svg2"
   width="417.51999"
   height="406.66266"
   viewBox="0 0 417.51999 406.66266"
   sodipodi:docname="a.ai"
   xmlns:inkscape="http://www.inkscape.org/namespaces/inkscape"
   xmlns:sodipodi="http://sodipodi.sourceforge.net/DTD/sodipodi-0.dtd"
   xmlns="http://www.w3.org/2000/svg"
   xmlns:svg="http://www.w3.org/2000/svg">
  <defs
     id="defs6">
    <clipPath
       clipPathUnits="userSpaceOnUse"
       id="clipPath16">
      <path
         d="m 48.004,280.325 -2.3,-5.902 c -3.197,-8.2 -4.823,-14.552 -4.882,-19.061 v 0 c -0.057,-4.51 0.992,-8.129 3.135,-10.852 v 0 c 2.148,-2.732 6.28,-6.414 12.398,-11.064 v 0 C 46.657,228.912 37.24,222.67 28.094,214.717 v 0 C 18.954,206.755 11.948,196.553 7.092,184.095 v 0 c -8.309,-21.315 -9.05,-42.84 -2.224,-64.567 v 0 C 11.692,97.791 25.286,77.664 45.639,59.161 v 0 C 65.998,40.647 91.751,25.325 122.897,13.184 v 0 c 34.104,-13.295 63.226,-16.343 87.371,-9.132 v 0 c 24.15,7.202 40.948,22.934 50.409,47.204 v 0 c 5.367,13.769 6.825,27.931 4.378,42.483 v 0 c -2.443,14.549 -7.837,27.603 -16.175,39.162 v 0 c 27.477,-3.158 47.28,10.836 59.425,41.991 v 0 c 3.834,9.835 5.263,20.041 4.288,30.621 v 0 c -0.976,10.578 -5.302,18.117 -12.991,22.626 v 0 c -12.549,7.53 -21.935,12.516 -28.168,14.946 v 0 c -2.29,0.892 -3.861,1.222 -4.714,0.987 v 0 c -0.844,-0.237 -1.591,-1.175 -2.229,-2.813 v 0 c -0.383,-0.983 -0.628,-3.065 -0.729,-6.23 v 0 c -0.104,-3.175 -0.73,-6.231 -1.88,-9.181 v 0 c -2.046,-5.25 -4.747,-8.545 -8.098,-9.877 v 0 c -3.354,-1.337 -7.812,-0.92 -13.39,1.255 v 0 c -3.276,1.276 -45.749,23.119 -127.422,65.535 v 0 l -41.554,21.297 c -1.178,0.459 -2.347,0.688 -3.509,0.688 v 0 c -6.92,0 -13.559,-8.142 -19.905,-24.421 M 147.228,88.681 C 116.081,100.823 93.985,114.623 80.941,130.1 v 0 C 67.9,145.567 64.634,161.665 71.153,178.388 v 0 c 4.472,11.474 13.116,20.568 25.933,27.284 v 0 l 12.321,-7.635 10.844,-7.06 c 8.016,-4.64 22.849,-12.122 44.504,-22.447 v 0 l 33.575,-17.057 c 14.291,-19.546 18.812,-36.04 13.573,-49.48 v 0 C 206.477,88.073 196.04,81.116 180.588,81.116 v 0 c -9.302,0 -20.423,2.522 -33.36,7.565"
         id="path14" />
    </clipPath>
    <clipPath
       clipPathUnits="userSpaceOnUse"
       id="clipPath228">
      <path
         d="M 0,304.997 H 313.14 V 0 H 0 Z"
         id="path226" />
    </clipPath>
  </defs>
  <sodipodi:namedview
     id="namedview4"
     pagecolor="#ffffff"
     bordercolor="#000000"
     borderopacity="0.25"
     inkscape:showpageshadow="2"
     inkscape:pageopacity="0.0"
     inkscape:pagecheckerboard="0"
     inkscape:deskcolor="#d1d1d1" />
  <g
     id="g8"
     inkscape:groupmode="layer"
     inkscape:label="a"
     transform="matrix(1.3333333,0,0,-1.3333333,0,406.66267)">
    <g
       id="g10">
      <g
         id="g12"
         clip-path="url(#clipPath16)">
        <g
           id="g18"
           transform="translate(-131.1282,351.7658)">
          <path
             d="M 0,0 475.832,-675.554"
             style="fill:#6b6b6b;fill-opacity:1;fill-rule:nonzero;stroke:#ffffff;stroke-width:0.25;stroke-linecap:butt;stroke-linejoin:miter;stroke-miterlimit:10;stroke-dasharray:none;stroke-opacity:1"
             id="path20" />
        </g>
        <g
           id="g22"
           transform="translate(-123.9018,356.8557)">
          <path
             d="M 0,0 475.832,-675.554"
             style="fill:#6b6b6b;fill-opacity:1;fill-rule:nonzero;stroke:#ffffff;stroke-width:0.25;stroke-linecap:butt;stroke-linejoin:miter;stroke-miterlimit:10;stroke-dasharray:none;stroke-opacity:1"
             id="path24" />
        </g>
        <g
           id="g26"
           transform="translate(-116.6754,361.9457)">
          <path
             d="M 0,0 475.832,-675.554"
             style="fill:#6b6b6b;fill-opacity:1;fill-rule:nonzero;stroke:#ffffff;stroke-width:0.25;stroke-linecap:butt;stroke-linejoin:miter;stroke-miterlimit:10;stroke-dasharray:none;stroke-opacity:1"
             id="path28" />
        </g>
        <g
           id="g30"
           transform="translate(-109.449,367.0357)">
          <path
             d="M 0,0 475.832,-675.554"
             style="fill:#6b6b6b;fill-opacity:1;fill-rule:nonzero;stroke:#ffffff;stroke-width:0.25;stroke-linecap:butt;stroke-linejoin:miter;stroke-miterlimit:10;stroke-dasharray:none;stroke-opacity:1"
             id="path32" />
        </g>
        <g
           id="g34"
           transform="translate(-160.0338,331.4058)">
          <path
             d="M 0,0 475.832,-675.554"
             style="fill:#6b6b6b;fill-opacity:1;fill-rule:nonzero;stroke:#ffffff;stroke-width:0.25;stroke-linecap:butt;stroke-linejoin:miter;stroke-miterlimit:10;stroke-dasharray:none;stroke-opacity:1"
             id="path36" />
        </g>
        <g
           id="g38"
           transform="translate(-152.8074,336.4958)">
          <path
             d="M 0,0 475.832,-675.554"
             style="fill:#6b6b6b;fill-opacity:1;fill-rule:nonzero;stroke:#ffffff;stroke-width:0.25;stroke-linecap:butt;stroke-linejoin:miter;stroke-miterlimit:10;stroke-dasharray:none;stroke-opacity:1"
             id="path40" />
        </g>
        <g
           id="g42"
           transform="translate(-145.581,341.5858)">
          <path
             d="M 0,0 475.832,-675.554"
             style="fill:#6b6b6b;fill-opacity:1;fill-rule:nonzero;stroke:#ffffff;stroke-width:0.25;stroke-linecap:butt;stroke-linejoin:miter;stroke-miterlimit:10;stroke-dasharray:none;stroke-opacity:1"
             id="path44" />
        </g>
        <g
           id="g46"
           transform="translate(-138.3546,346.6758)">
          <path
             d="M 0,0 475.832,-675.554"
             style="fill:#6b6b6b;fill-opacity:1;fill-rule:nonzero;stroke:#ffffff;stroke-width:0.25;stroke-linecap:butt;stroke-linejoin:miter;stroke-miterlimit:10;stroke-dasharray:none;stroke-opacity:1"
             id="path48" />
        </g>
        <g
           id="g50"
           transform="translate(-181.7129,316.1359)">
          <path
             d="M 0,0 475.832,-675.554"
             style="fill:#6b6b6b;fill-opacity:1;fill-rule:nonzero;stroke:#ffffff;stroke-width:0.25;stroke-linecap:butt;stroke-linejoin:miter;stroke-miterlimit:10;stroke-dasharray:none;stroke-opacity:1"
             id="path52" />
        </g>
        <g
           id="g54"
           transform="translate(-174.4865,321.2259)">
          <path
             d="M 0,0 475.832,-675.554"
             style="fill:#6b6b6b;fill-opacity:1;fill-rule:nonzero;stroke:#ffffff;stroke-width:0.25;stroke-linecap:butt;stroke-linejoin:miter;stroke-miterlimit:10;stroke-dasharray:none;stroke-opacity:1"
             id="path56" />
        </g>
        <g
           id="g58"
           transform="translate(-167.2601,326.3159)">
          <path
             d="M 0,0 475.832,-675.554"
             style="fill:#6b6b6b;fill-opacity:1;fill-rule:nonzero;stroke:#ffffff;stroke-width:0.25;stroke-linecap:butt;stroke-linejoin:miter;stroke-miterlimit:10;stroke-dasharray:none;stroke-opacity:1"
             id="path60" />
        </g>
        <g
           id="g62"
           transform="translate(-15.5059,433.2055)">
          <path
             d="M 0,0 475.832,-675.554"
             style="fill:#6b6b6b;fill-opacity:1;fill-rule:nonzero;stroke:#ffffff;stroke-width:0.25;stroke-linecap:butt;stroke-linejoin:miter;stroke-miterlimit:10;stroke-dasharray:none;stroke-opacity:1"
             id="path64" />
        </g>
        <g
           id="g66"
           transform="translate(-8.2795,438.2955)">
          <path
             d="M 0,0 475.832,-675.554"
             style="fill:#6b6b6b;fill-opacity:1;fill-rule:nonzero;stroke:#ffffff;stroke-width:0.25;stroke-linecap:butt;stroke-linejoin:miter;stroke-miterlimit:10;stroke-dasharray:none;stroke-opacity:1"
             id="path68" />
        </g>
        <g
           id="g70"
           transform="translate(-1.0531,443.3855)">
          <path
             d="M 0,0 475.832,-675.554"
             style="fill:#6b6b6b;fill-opacity:1;fill-rule:nonzero;stroke:#ffffff;stroke-width:0.25;stroke-linecap:butt;stroke-linejoin:miter;stroke-miterlimit:10;stroke-dasharray:none;stroke-opacity:1"
             id="path72" />
        </g>
        <g
           id="g74"
           transform="translate(6.1733,448.4755)">
          <path
             d="M 0,0 475.832,-675.554"
             style="fill:#6b6b6b;fill-opacity:1;fill-rule:nonzero;stroke:#ffffff;stroke-width:0.25;stroke-linecap:butt;stroke-linejoin:miter;stroke-miterlimit:10;stroke-dasharray:none;stroke-opacity:1"
             id="path76" />
        </g>
        <g
           id="g78"
           transform="translate(-44.4114,412.8456)">
          <path
             d="M 0,0 475.832,-675.554"
             style="fill:#6b6b6b;fill-opacity:1;fill-rule:nonzero;stroke:#ffffff;stroke-width:0.25;stroke-linecap:butt;stroke-linejoin:miter;stroke-miterlimit:10;stroke-dasharray:none;stroke-opacity:1"
             id="path80" />
        </g>
        <g
           id="g82"
           transform="translate(-37.185,417.9355)">
          <path
             d="M 0,0 475.832,-675.554"
             style="fill:#6b6b6b;fill-opacity:1;fill-rule:nonzero;stroke:#ffffff;stroke-width:0.25;stroke-linecap:butt;stroke-linejoin:miter;stroke-miterlimit:10;stroke-dasharray:none;stroke-opacity:1"
             id="path84" />
        </g>
        <g
           id="g86"
           transform="translate(-29.9586,423.0255)">
          <path
             d="M 0,0 475.832,-675.554"
             style="fill:#6b6b6b;fill-opacity:1;fill-rule:nonzero;stroke:#ffffff;stroke-width:0.25;stroke-linecap:butt;stroke-linejoin:miter;stroke-miterlimit:10;stroke-dasharray:none;stroke-opacity:1"
             id="path88" />
        </g>
        <g
           id="g90"
           transform="translate(-22.7323,428.1155)">
          <path
             d="M 0,0 475.832,-675.554"
             style="fill:#6b6b6b;fill-opacity:1;fill-rule:nonzero;stroke:#ffffff;stroke-width:0.25;stroke-linecap:butt;stroke-linejoin:miter;stroke-miterlimit:10;stroke-dasharray:none;stroke-opacity:1"
             id="path92" />
        </g>
        <g
           id="g94"
           transform="translate(-73.317,392.4856)">
          <path
             d="M 0,0 475.832,-675.554"
             style="fill:#6b6b6b;fill-opacity:1;fill-rule:nonzero;stroke:#ffffff;stroke-width:0.25;stroke-linecap:butt;stroke-linejoin:miter;stroke-miterlimit:10;stroke-dasharray:none;stroke-opacity:1"
             id="path96" />
        </g>
        <g
           id="g98"
           transform="translate(-66.0906,397.5756)">
          <path
             d="M 0,0 475.832,-675.554"
             style="fill:#6b6b6b;fill-opacity:1;fill-rule:nonzero;stroke:#ffffff;stroke-width:0.25;stroke-linecap:butt;stroke-linejoin:miter;stroke-miterlimit:10;stroke-dasharray:none;stroke-opacity:1"
             id="path100" />
        </g>
        <g
           id="g102"
           transform="translate(-58.8642,402.6656)">
          <path
             d="M 0,0 475.832,-675.554"
             style="fill:#6b6b6b;fill-opacity:1;fill-rule:nonzero;stroke:#ffffff;stroke-width:0.25;stroke-linecap:butt;stroke-linejoin:miter;stroke-miterlimit:10;stroke-dasharray:none;stroke-opacity:1"
             id="path104" />
        </g>
        <g
           id="g106"
           transform="translate(-51.6378,407.7556)">
          <path
             d="M 0,0 475.832,-675.554"
             style="fill:#6b6b6b;fill-opacity:1;fill-rule:nonzero;stroke:#ffffff;stroke-width:0.25;stroke-linecap:butt;stroke-linejoin:miter;stroke-miterlimit:10;stroke-dasharray:none;stroke-opacity:1"
             id="path108" />
        </g>
        <g
           id="g110"
           transform="translate(-102.2226,372.1257)">
          <path
             d="M 0,0 475.832,-675.554"
             style="fill:#6b6b6b;fill-opacity:1;fill-rule:nonzero;stroke:#ffffff;stroke-width:0.25;stroke-linecap:butt;stroke-linejoin:miter;stroke-miterlimit:10;stroke-dasharray:none;stroke-opacity:1"
             id="path112" />
        </g>
        <g
           id="g114"
           transform="translate(-94.9962,377.2157)">
          <path
             d="M 0,0 475.832,-675.554"
             style="fill:#6b6b6b;fill-opacity:1;fill-rule:nonzero;stroke:#ffffff;stroke-width:0.25;stroke-linecap:butt;stroke-linejoin:miter;stroke-miterlimit:10;stroke-dasharray:none;stroke-opacity:1"
             id="path116" />
        </g>
        <g
           id="g118"
           transform="translate(-87.7698,382.3057)">
          <path
             d="M 0,0 475.832,-675.554"
             style="fill:#6b6b6b;fill-opacity:1;fill-rule:nonzero;stroke:#ffffff;stroke-width:0.25;stroke-linecap:butt;stroke-linejoin:miter;stroke-miterlimit:10;stroke-dasharray:none;stroke-opacity:1"
             id="path120" />
        </g>
        <g
           id="g122"
           transform="translate(-80.5434,387.3957)">
          <path
             d="M 0,0 475.832,-675.554"
             style="fill:#6b6b6b;fill-opacity:1;fill-rule:nonzero;stroke:#ffffff;stroke-width:0.25;stroke-linecap:butt;stroke-linejoin:miter;stroke-miterlimit:10;stroke-dasharray:none;stroke-opacity:1"
             id="path124" />
        </g>
        <g
           id="g126"
           transform="translate(100.1165,514.6453)">
          <path
             d="M 0,0 475.832,-675.554"
             style="fill:#6b6b6b;fill-opacity:1;fill-rule:nonzero;stroke:#ffffff;stroke-width:0.25;stroke-linecap:butt;stroke-linejoin:miter;stroke-miterlimit:10;stroke-dasharray:none;stroke-opacity:1"
             id="path128" />
        </g>
        <g
           id="g130"
           transform="translate(107.3428,519.7352)">
          <path
             d="M 0,0 475.832,-675.554"
             style="fill:#6b6b6b;fill-opacity:1;fill-rule:nonzero;stroke:#ffffff;stroke-width:0.25;stroke-linecap:butt;stroke-linejoin:miter;stroke-miterlimit:10;stroke-dasharray:none;stroke-opacity:1"
             id="path132" />
        </g>
        <g
           id="g134"
           transform="translate(114.5692,524.8252)">
          <path
             d="M 0,0 475.832,-675.554"
             style="fill:#6b6b6b;fill-opacity:1;fill-rule:nonzero;stroke:#ffffff;stroke-width:0.25;stroke-linecap:butt;stroke-linejoin:miter;stroke-miterlimit:10;stroke-dasharray:none;stroke-opacity:1"
             id="path136" />
        </g>
        <g
           id="g138"
           transform="translate(121.7956,529.9152)">
          <path
             d="M 0,0 475.832,-675.554"
             style="fill:#6b6b6b;fill-opacity:1;fill-rule:nonzero;stroke:#ffffff;stroke-width:0.25;stroke-linecap:butt;stroke-linejoin:miter;stroke-miterlimit:10;stroke-dasharray:none;stroke-opacity:1"
             id="path140" />
        </g>
        <g
           id="g142"
           transform="translate(71.2109,494.2853)">
          <path
             d="M 0,0 475.832,-675.554"
             style="fill:#6b6b6b;fill-opacity:1;fill-rule:nonzero;stroke:#ffffff;stroke-width:0.25;stroke-linecap:butt;stroke-linejoin:miter;stroke-miterlimit:10;stroke-dasharray:none;stroke-opacity:1"
             id="path144" />
        </g>
        <g
           id="g146"
           transform="translate(78.4373,499.3753)">
          <path
             d="M 0,0 475.832,-675.554"
             style="fill:#6b6b6b;fill-opacity:1;fill-rule:nonzero;stroke:#ffffff;stroke-width:0.25;stroke-linecap:butt;stroke-linejoin:miter;stroke-miterlimit:10;stroke-dasharray:none;stroke-opacity:1"
             id="path148" />
        </g>
        <g
           id="g150"
           transform="translate(85.6637,504.4653)">
          <path
             d="M 0,0 475.832,-675.554"
             style="fill:#6b6b6b;fill-opacity:1;fill-rule:nonzero;stroke:#ffffff;stroke-width:0.25;stroke-linecap:butt;stroke-linejoin:miter;stroke-miterlimit:10;stroke-dasharray:none;stroke-opacity:1"
             id="path152" />
        </g>
        <g
           id="g154"
           transform="translate(92.8901,509.5553)">
          <path
             d="M 0,0 475.832,-675.554"
             style="fill:#6b6b6b;fill-opacity:1;fill-rule:nonzero;stroke:#ffffff;stroke-width:0.25;stroke-linecap:butt;stroke-linejoin:miter;stroke-miterlimit:10;stroke-dasharray:none;stroke-opacity:1"
             id="path156" />
        </g>
        <g
           id="g158"
           transform="translate(42.3053,473.9254)">
          <path
             d="M 0,0 475.832,-675.554"
             style="fill:#6b6b6b;fill-opacity:1;fill-rule:nonzero;stroke:#ffffff;stroke-width:0.25;stroke-linecap:butt;stroke-linejoin:miter;stroke-miterlimit:10;stroke-dasharray:none;stroke-opacity:1"
             id="path160" />
        </g>
        <g
           id="g162"
           transform="translate(49.5317,479.0154)">
          <path
             d="M 0,0 475.832,-675.554"
             style="fill:#6b6b6b;fill-opacity:1;fill-rule:nonzero;stroke:#ffffff;stroke-width:0.25;stroke-linecap:butt;stroke-linejoin:miter;stroke-miterlimit:10;stroke-dasharray:none;stroke-opacity:1"
             id="path164" />
        </g>
        <g
           id="g166"
           transform="translate(56.7581,484.1053)">
          <path
             d="M 0,0 475.832,-675.554"
             style="fill:#6b6b6b;fill-opacity:1;fill-rule:nonzero;stroke:#ffffff;stroke-width:0.25;stroke-linecap:butt;stroke-linejoin:miter;stroke-miterlimit:10;stroke-dasharray:none;stroke-opacity:1"
             id="path168" />
        </g>
        <g
           id="g170"
           transform="translate(63.9845,489.1953)">
          <path
             d="M 0,0 475.832,-675.554"
             style="fill:#6b6b6b;fill-opacity:1;fill-rule:nonzero;stroke:#ffffff;stroke-width:0.25;stroke-linecap:butt;stroke-linejoin:miter;stroke-miterlimit:10;stroke-dasharray:none;stroke-opacity:1"
             id="path172" />
        </g>
        <g
           id="g174"
           transform="translate(13.3997,453.5654)">
          <path
             d="M 0,0 475.832,-675.554"
             style="fill:#6b6b6b;fill-opacity:1;fill-rule:nonzero;stroke:#ffffff;stroke-width:0.25;stroke-linecap:butt;stroke-linejoin:miter;stroke-miterlimit:10;stroke-dasharray:none;stroke-opacity:1"
             id="path176" />
        </g>
        <g
           id="g178"
           transform="translate(20.6261,458.6554)">
          <path
             d="M 0,0 475.832,-675.554"
             style="fill:#6b6b6b;fill-opacity:1;fill-rule:nonzero;stroke:#ffffff;stroke-width:0.25;stroke-linecap:butt;stroke-linejoin:miter;stroke-miterlimit:10;stroke-dasharray:none;stroke-opacity:1"
             id="path180" />
        </g>
        <g
           id="g182"
           transform="translate(27.8525,463.7454)">
          <path
             d="M 0,0 475.832,-675.554"
             style="fill:#6b6b6b;fill-opacity:1;fill-rule:nonzero;stroke:#ffffff;stroke-width:0.25;stroke-linecap:butt;stroke-linejoin:miter;stroke-miterlimit:10;stroke-dasharray:none;stroke-opacity:1"
             id="path184" />
        </g>
        <g
           id="g186"
           transform="translate(35.0789,468.8354)">
          <path
             d="M 0,0 475.832,-675.554"
             style="fill:#6b6b6b;fill-opacity:1;fill-rule:nonzero;stroke:#ffffff;stroke-width:0.25;stroke-linecap:butt;stroke-linejoin:miter;stroke-miterlimit:10;stroke-dasharray:none;stroke-opacity:1"
             id="path188" />
        </g>
        <g
           id="g190"
           transform="translate(157.9276,555.3651)">
          <path
             d="M 0,0 475.832,-675.554"
             style="fill:#6b6b6b;fill-opacity:1;fill-rule:nonzero;stroke:#ffffff;stroke-width:0.25;stroke-linecap:butt;stroke-linejoin:miter;stroke-miterlimit:10;stroke-dasharray:none;stroke-opacity:1"
             id="path192" />
        </g>
        <g
           id="g194"
           transform="translate(165.154,560.4551)">
          <path
             d="M 0,0 475.832,-675.554"
             style="fill:#6b6b6b;fill-opacity:1;fill-rule:nonzero;stroke:#ffffff;stroke-width:0.25;stroke-linecap:butt;stroke-linejoin:miter;stroke-miterlimit:10;stroke-dasharray:none;stroke-opacity:1"
             id="path196" />
        </g>
        <g
           id="g198"
           transform="translate(172.3804,565.545)">
          <path
             d="M 0,0 475.832,-675.554"
             style="fill:#6b6b6b;fill-opacity:1;fill-rule:nonzero;stroke:#ffffff;stroke-width:0.25;stroke-linecap:butt;stroke-linejoin:miter;stroke-miterlimit:10;stroke-dasharray:none;stroke-opacity:1"
             id="path200" />
        </g>
        <g
           id="g202"
           transform="translate(179.6068,570.6351)">
          <path
             d="M 0,0 475.832,-675.554"
             style="fill:#6b6b6b;fill-opacity:1;fill-rule:nonzero;stroke:#ffffff;stroke-width:0.25;stroke-linecap:butt;stroke-linejoin:miter;stroke-miterlimit:10;stroke-dasharray:none;stroke-opacity:1"
             id="path204" />
        </g>
        <g
           id="g206"
           transform="translate(129.022,535.0052)">
          <path
             d="M 0,0 475.832,-675.554"
             style="fill:#6b6b6b;fill-opacity:1;fill-rule:nonzero;stroke:#ffffff;stroke-width:0.25;stroke-linecap:butt;stroke-linejoin:miter;stroke-miterlimit:10;stroke-dasharray:none;stroke-opacity:1"
             id="path208" />
        </g>
        <g
           id="g210"
           transform="translate(136.2484,540.0952)">
          <path
             d="M 0,0 475.832,-675.554"
             style="fill:#6b6b6b;fill-opacity:1;fill-rule:nonzero;stroke:#ffffff;stroke-width:0.25;stroke-linecap:butt;stroke-linejoin:miter;stroke-miterlimit:10;stroke-dasharray:none;stroke-opacity:1"
             id="path212" />
        </g>
        <g
           id="g214"
           transform="translate(143.4748,545.1851)">
          <path
             d="M 0,0 475.832,-675.554"
             style="fill:#6b6b6b;fill-opacity:1;fill-rule:nonzero;stroke:#ffffff;stroke-width:0.25;stroke-linecap:butt;stroke-linejoin:miter;stroke-miterlimit:10;stroke-dasharray:none;stroke-opacity:1"
             id="path216" />
        </g>
        <g
           id="g218"
           transform="translate(150.7012,550.2751)">
          <path
             d="M 0,0 475.832,-675.554"
             style="fill:#6b6b6b;fill-opacity:1;fill-rule:nonzero;stroke:#ffffff;stroke-width:0.25;stroke-linecap:butt;stroke-linejoin:miter;stroke-miterlimit:10;stroke-dasharray:none;stroke-opacity:1"
             id="path220" />
        </g>
      </g>
    </g>
    <g
       id="g222">
      <g
         id="g224"
         clip-path="url(#clipPath228)">
        <g
           id="g230"
           transform="translate(109.4064,198.0365)">
          <path
             d="m 0,0 -12.321,7.635 c -12.817,-6.716 -21.46,-15.81 -25.933,-27.283 -6.518,-16.724 -3.252,-32.822 9.789,-48.289 13.044,-15.477 35.139,-29.277 66.287,-41.419 34.425,-13.419 55.982,-8.987 64.674,13.312 5.24,13.44 0.719,29.935 -13.572,49.48 L 55.348,-29.506 C 33.693,-19.181 18.86,-11.7 10.844,-7.06 Z m 157.314,46.036 c 0.853,0.234 2.424,-0.095 4.714,-0.988 6.233,-2.43 15.619,-7.416 28.167,-14.945 7.689,-4.509 12.015,-12.048 12.992,-22.626 0.975,-10.58 -0.455,-20.787 -4.289,-30.622 -12.144,-31.154 -31.947,-45.149 -59.425,-41.99 8.339,-11.56 13.733,-24.614 16.176,-39.163 2.446,-14.552 0.989,-28.713 -4.379,-42.483 -9.46,-24.269 -26.259,-40.002 -50.409,-47.204 -24.145,-7.211 -53.266,-4.162 -87.37,9.132 -31.146,12.141 -56.899,27.463 -77.258,45.978 -20.353,18.503 -33.947,38.63 -40.771,60.367 -6.826,21.727 -6.085,43.252 2.224,64.567 4.856,12.457 11.862,22.66 21.002,30.621 9.146,7.953 18.563,14.196 28.261,18.729 -6.118,4.651 -10.25,8.333 -12.399,11.064 -2.143,2.723 -3.192,6.343 -3.134,10.853 0.058,4.509 1.685,10.861 4.881,19.061 l 2.301,5.901 c 7.411,19.013 15.222,26.926 23.413,23.733 L 3.565,84.725 C 85.239,42.309 127.712,20.466 130.987,19.189 c 5.579,-2.174 10.037,-2.592 13.391,-1.254 3.351,1.331 6.052,4.626 8.098,9.876 1.15,2.951 1.775,6.007 1.879,9.181 0.101,3.165 0.346,5.247 0.73,6.231 0.638,1.638 1.384,2.576 2.229,2.813 z"
             style="fill:none;stroke:#ffffff;stroke-width:0.5;stroke-linecap:butt;stroke-linejoin:miter;stroke-miterlimit:10;stroke-dasharray:none;stroke-opacity:1"
             id="path232" />
        </g>
      </g>
    </g>
  </g>
</svg>
