<?xml version="1.0" standalone="no"?><!DOCTYPE svg PUBLIC "-//W3C//DTD SVG 1.1//EN" "http://www.w3.org/Graphics/SVG/1.1/DTD/svg11.dtd"><svg class="icon" width="32px" height="32.00px" viewBox="0 0 1024 1024" version="1.1" xmlns="http://www.w3.org/2000/svg"><path fill="#000000" d="M512 64l-384 128v384a384 384 0 0 0 384 384 384 384 0 0 0 384-384v-384l-384-128z m312.021333 512a312.021333 312.021333 0 0 1-624 0V246.016L512 135.978667l312.021333 110.037333V576zM378.368 475.093333a35.925333 35.925333 0 0 0-50.901333 0 35.925333 35.925333 0 0 0 0 50.901334l129.408 129.408 2.090666 2.133333a33.962667 33.962667 0 0 0 48.085334 0l223.488-223.573333a33.962667 33.962667 0 0 0 0-48.042667l-2.773334-2.816a33.962667 33.962667 0 0 0-48.128 0l-196.693333 196.608-104.576-104.618667z"  opacity=".65" /></svg>