<?xml version="1.0" standalone="no"?><!DOCTYPE svg PUBLIC "-//W3C//DTD SVG 1.1//EN" "http://www.w3.org/Graphics/SVG/1.1/DTD/svg11.dtd"><svg class="icon" width="32px" height="32.00px" viewBox="0 0 1024 1024" version="1.1" xmlns="http://www.w3.org/2000/svg"><path fill="#000000" d="M887.933702 294.218754a84.720457 84.720457 0 0 0-72.696718-23.450554v-1.108572h-4.093187A245.122247 245.122247 0 0 0 767.824227 169.888179a282.472584 282.472584 0 0 0-80.541994-74.189026l28.609676-40.846601v-3.794726c0-0.895385 0.511648-2.558242 0.81011-4.39165 0.682198-2.771429 1.577583-6.267694 1.577583-10.147694A35.303743 35.303743 0 0 0 681.782012 0.020892c-11.170991 0-22.256708 6.48088-29.505061 17.52396l-33.427699 48.052317a348.219411 348.219411 0 0 0-106.763977-17.140223c-35.68748 0-72.568806 5.969232-106.763978 17.140223L371.936235 17.544852C364.474696 6.587047 353.602166 0.020892 342.431175 0.020892a35.303743 35.303743 0 0 0-36.49759 36.49759 30.698907 30.698907 0 0 0 7.589452 19.826378l25.710335 36.881326A275.693242 275.693242 0 0 0 257.02852 167.585761a231.734113 231.734113 0 0 0-41.784624 99.771449h-6.267693v1.108572a84.635182 84.635182 0 0 0-72.568806 23.237367c-15.775827 15.775827-24.516488 37.3077-24.516489 60.545067v268.316977c0 23.152093 8.570112 44.683965 24.303302 60.417155a84.891006 84.891006 0 0 0 72.696718 23.450555v106.763977c0 33.385062 27.202643 60.587705 60.630342 60.587705h36.241765v66.599574c0 23.109455 8.612749 44.641328 24.345939 60.417155 15.775827 15.775827 37.3077 24.516488 60.545067 24.516488 23.109455 0 44.641328-8.570112 60.374518-24.303302 15.775827-15.775827 24.516488-37.3077 24.516489-60.545067v-66.514299h72.696718v66.429025c0 23.109455 8.527474 44.641328 24.303301 60.417155 15.775827 15.775827 37.3077 24.516488 60.545067 24.516488 23.19473 0 44.641328-8.570112 60.374518-24.729675 15.775827-15.775827 24.516488-37.265062 24.516488-60.50243v-66.514299h36.284403c33.427699 0 60.630342-27.202643 60.630342-60.587705v-104.376285a84.635182 84.635182 0 0 0 72.568806-23.237367c15.775827-15.775827 24.516488-37.265062 24.516489-60.50243V354.593272a84.166171 84.166171 0 0 0-24.00484-60.374518z m-678.78695 328.947319c0 7.760002-4.391649 12.151651-12.151651 12.151651-7.802639 0-12.151651-4.391649-12.151651-12.151651V354.593272c0-7.760002 4.349012-12.151651 12.151651-12.151651 7.760002 0 12.151651 4.391649 12.151651 12.151651v268.615438z m149.230799-453.192619c42.637371-31.167918 97.085294-48.350779 153.707724-48.350779 56.622429 0 111.070352 17.268135 153.75036 48.563966 36.881326 27.032093 61.696276 61.909463 71.37496 99.899361H287.087867c9.678683-38.075173 34.70682-73.080454 71.289684-100.112548z m44.76924 770.499936c-0.724835 6.395606-4.988572 9.977145-11.938464 9.977145-7.802639 0-12.194288-4.391649-12.194288-12.151651v-66.514299h24.132752v68.688805z m242.350818 0c-0.724835 6.395606-4.988572 9.977145-11.938464 9.977145-7.802639 0-12.194288-4.391649-12.194288-12.151651v-66.514299h24.132752v68.688805z m97.00002-141.470798H281.928745V342.654808h460.568884v456.347784z m96.957382-175.836519c0 7.760002-4.349012 12.151651-12.151651 12.151651-7.760002 0-12.151651-4.391649-12.15165-12.151651V354.593272c0-7.760002 4.391649-12.151651 12.15165-12.151651 7.802639 0 12.151651 4.391649 12.151651 12.151651v268.615438z"  opacity=".65" /><path fill="#000000" d="M584.952542 184.129061a35.303743 35.303743 0 0 0-36.454952 36.49759c0 21.148136 15.349454 36.49759 36.454952 36.49759 21.148136 0 36.49759-15.349454 36.49759-36.582865-0.085275-21.318686-15.136267-36.412315-36.49759-36.412315z m-145.521348 0a35.303743 35.303743 0 0 0-36.49759 36.49759c0 21.148136 15.349454 36.49759 36.49759 36.49759s36.49759-15.349454 36.49759-36.49759c0.085275-21.148136-15.264179-36.49759-36.49759-36.49759z"  opacity=".65" /></svg>