<?xml version="1.0" standalone="no"?><!DOCTYPE svg PUBLIC "-//W3C//DTD SVG 1.1//EN" "http://www.w3.org/Graphics/SVG/1.1/DTD/svg11.dtd"><svg class="icon" width="128px" height="128.00px" viewBox="0 0 1024 1024" version="1.1" xmlns="http://www.w3.org/2000/svg"><path fill="#000000" d="M99.089687 199.909004M421.953164 119.714909h191.003927c8.709585 0 16.637207 3.570967 22.386502 9.3184l0.050269 0.050269c5.747433 5.749295 9.3184 13.676916 9.3184 22.386502v29.817018c0 8.743098-3.570967 16.687476-9.3184 22.434909-5.749295 5.749295-13.693673 9.320262-22.436771 9.320262h-191.003927c-8.743098 0-16.687476-3.570967-22.436771-9.320262-5.747433-5.747433-9.3184-13.691811-9.3184-22.434909V151.47008c0-8.709585 3.570967-16.637207 9.3184-22.386502l0.050269-0.050269c5.749295-5.747433 13.676916-9.3184 22.386502-9.3184z m191.003927 26.273978h-191.003927c-1.51552 0-2.891404 0.610676-3.887477 1.593717a5.522897 5.522897 0 0 0-1.593716 3.887476v29.817018c0 1.49504 0.621847 2.865338 1.61792 3.861411 0.997935 0.997935 2.368233 1.619782 3.863273 1.619782h191.003927c1.49504 0 2.865338-0.621847 3.863273-1.619782 0.996073-0.996073 1.61792-2.366371 1.61792-3.861411V151.47008c0-1.51552-0.610676-2.891404-1.593717-3.887476a5.522897 5.522897 0 0 0-3.887476-1.593717zM669.064844 502.359505h-0.536204M692.345018 187.553978c-10.882327 0-19.705484-8.823156-19.705483-19.705483s8.823156-19.705484 19.705483-19.705484h109.095098c25.918371 0 49.470371 10.591884 66.528349 27.649862 17.05984 17.061702 27.649862 40.613702 27.649862 66.528349v579.50208c0 25.918371-10.591884 49.470371-27.649862 66.528349-17.057978 17.057978-40.609978 27.649862-66.528349 27.649862H221.938036c-25.918371 0-49.470371-10.591884-66.528349-27.649862-17.057978-17.057978-27.649862-40.609978-27.649862-66.528349V242.321222c0-25.918371 10.591884-49.470371 27.649862-66.528349 17.057978-17.057978 40.609978-27.649862 66.528349-27.649862h122.299113c10.882327 0 19.705484 8.823156 19.705484 19.705484s-8.823156 19.705484-19.705484 19.705483h-122.299113c-15.039767 0-28.729716 6.168204-38.664378 16.102866-9.934662 9.934662-16.102865 23.624611-16.102865 38.664378v579.50208c0 15.039767 6.168204 28.729716 16.102865 38.664378 9.934662 9.934662 23.624611 16.102865 38.664378 16.102865h579.50208c15.039767 0 28.729716-6.168204 38.664379-16.102865 9.934662-9.934662 16.102865-23.624611 16.102865-38.664378V242.321222c0-15.037905-6.168204-28.729716-16.102865-38.664378-9.934662-9.934662-23.624611-16.102865-38.664379-16.102866h-109.095098zM397.555898 534.144465c5.890793 0 11.526516-0.459869 16.877382-1.338647 5.537047-0.910429 10.984727-2.288175 16.290909-4.092276l8.616495-2.92864 183.95136 226.581411c0.523171 0.644189 1.124538 1.141295 1.783621 1.476422l-0.01117 0.02048c0.631156 0.310924 1.377745 0.495244 2.226734 0.538065 0.925324 0.046545 1.707287-0.050269 2.325411-0.28672 0.595782-0.227142 1.219491-0.664669 1.848785-1.293964l86.706735-86.729076c0.638604-0.638604 1.087302-1.286516 1.3312-1.919535 0.240175-0.625571 0.342575-1.394502 0.299753-2.286312-0.042822-0.893673-0.217833-1.649571-0.515724-2.243491-0.297891-0.595782-0.793135-1.182255-1.467113-1.737077l-225.291171-185.694021 2.824379-8.501062c1.705425-5.131171 3.025455-10.482036 3.915403-16.007913 0.83968-5.211229 1.279069-10.737105 1.279069-16.549702 0-28.44672-11.528378-54.195665-30.163316-72.830603-18.634938-18.633076-44.383884-30.161455-72.825018-30.161455-2.688465 0-5.172131 0.083782-7.449135 0.24576-1.629091 0.117295-3.239564 0.269964-4.827694 0.456146l40.209687 40.209687c9.493411 9.493411 14.242909 21.971316 14.242909 34.439913 0 12.438807-4.749498 24.896233-14.241047 34.393367v0.050269l-15.03232 15.030458c-9.493411 9.493411-21.97504 14.241047-34.443637 14.241047-12.429498 0-24.896233-4.756945-34.415709-14.267112l-0.026065 0.026065-44.534691-44.532829c-0.726109 3.252596-1.305135 6.616902-1.725905 10.083607-0.495244 4.071796-0.752175 8.285091-0.752175 12.61568 0 28.442996 11.528378 54.193804 30.163316 72.828742 18.634938 18.634938 44.385745 30.163316 72.828742 30.163316z m21.085091 24.522008c-7.002298 1.150604-14.051142 1.751971-21.085091 1.751971-35.691055 0-68.010356-14.471913-91.40224-37.863797-23.393745-23.393745-37.863796-55.711185-37.863796-91.40224 0-5.252189 0.32768-10.491345 0.960698-15.695127 0.631156-5.188887 1.593716-10.36288 2.865338-15.488465 1.104058-4.438575 3.278662-8.329775 6.311564-11.446459 3.027316-3.111098 6.853353-5.391825 11.260276-6.61504 4.390167-1.219491 8.830604-1.238109 13.02528-0.134051 4.235636 1.111505 8.11008 3.314036 11.308684 6.51264l46.128407 46.126546v0.050269c4.325004 4.325004 10.079884 6.490298 15.868276 6.490298 5.756742 0 11.511622-2.182051 15.870139-6.540567l15.030458-15.028596 0.026065 0.022341c4.339898-4.354793 6.516364-10.115258 6.516364-15.894341 0-5.756742-2.182051-11.506036-6.540567-15.864553l-42.023099-42.023098v-0.050269c-3.382924-3.386647-5.643171-7.480785-6.689512-11.90819-1.027724-4.354793-0.826647-9.000029 0.690734-13.561483 1.524829-4.589382 4.166749-8.450793 7.620422-11.342197 3.494633-2.919331 7.765644-4.850036 12.509556-5.5296a129.999593 129.999593 0 0 1 9.234619-0.996072c3.245149-0.230865 6.3488-0.350022 9.292334-0.350022 35.692916 0 68.008495 14.470051 91.40224 37.861934 23.391884 23.391884 37.863796 55.709324 37.863797 91.400379 0 6.853353-0.580887 13.758836-1.692393 20.656872-0.619985 3.848378-1.414982 7.650211-2.37568 11.398051l211.692451 174.485877c3.520698 2.900713 6.281775 6.339491 8.240407 10.253032 1.964218 3.915404 3.070138 8.175244 3.286109 12.710633 0.215971 4.537251-0.472902 8.880873-2.046138 12.961978-1.575098 4.071796-3.978705 7.743302-7.181033 10.949353l-86.706734 86.729076c-3.228393 3.232116-6.950167 5.658065-11.083404 7.244335-4.112756 1.580684-8.469411 2.267695-12.997353 2.033105-4.58752-0.236451-8.854807-1.357265-12.734836-3.328931h-0.052131c-3.857687-1.964218-7.281571-4.760669-10.19904-8.353978L430.297833 556.199564a129.836311 129.836311 0 0 1-11.656844 2.466909z" /></svg>