<svg t="1700037672003" class="icon" viewBox="0 0 1024 1024" version="1.1" xmlns="http://www.w3.org/2000/svg" p-id="19806" width="200" height="200"><path d="M512 1024C230.4 1024 0 793.6 0 512S230.4 0 512 0s512 230.4 512 512-230.4 512-512 512z m0-981.333333C253.866667 42.666667 42.666667 253.866667 42.666667 512s211.2 469.333333 469.333333 469.333333 469.333333-211.2 469.333333-469.333333S770.133333 42.666667 512 42.666667z" p-id="19807" fill="#cdcdcd"></path><path d="M490.666667 789.333333V234.666667c0-10.666667 8.533333-21.333333 21.333333-21.333334 10.666667 0 21.333333 8.533333 21.333333 21.333334v554.666666c0 10.666667-8.533333 21.333333-21.333333 21.333334-10.666667 0-21.333333-8.533333-21.333333-21.333334z" p-id="19808" fill="#cdcdcd"></path><path d="M315.733333 563.2l211.2 211.2c8.533333 8.533333 8.533333 21.333333 0 29.866667-8.533333 8.533333-21.333333 8.533333-29.866666 0l-211.2-211.2c-8.533333-8.533333-8.533333-21.333333 0-29.866667 8.533333-8.533333 21.333333-8.533333 29.866666 0z" p-id="19809" fill="#cdcdcd"></path><path d="M497.066667 774.4l211.2-211.2c8.533333-8.533333 21.333333-8.533333 29.866666 0 8.533333 8.533333 8.533333 21.333333 0 29.866667l-211.2 211.2c-8.533333 8.533333-21.333333 8.533333-29.866666 0-8.533333-8.533333-8.533333-21.333333 0-29.866667z" p-id="19810" fill="#cdcdcd"></path></svg>