<svg xmlns="http://www.w3.org/2000/svg" width="694.603" height="607.812" viewBox="0 0 694.603 607.812"><g transform="translate(-14063.029 -480.962)"><path d="M14733.146,616.593h18.673V579.248h-292.674v37.345h274Z"/><path d="M14624.154,554.064v-73.1h-37.344v91.775h37.344Z"/><path d="M14538.106,634.81a216.6,216.6,0,0,1-25.916,33.261,156.98,156.98,0,0,1-37.213,28.935l-16.337,8.971,17.943,32.676,16.341-8.971a194.443,194.443,0,0,0,46.105-35.789,253.244,253.244,0,0,0,30.438-38.952l10.067-15.681-31.364-20.13Z"/><path d="M14520.91,559.954l8.827,16.41,32.818-17.652-8.824-16.41-24.174-44.748-8.824-16.409L14487.91,498.8l8.827,16.409Z"/><path d="M14690.058,559.954l24.174-44.748,8.824-16.409-32.822-17.652-8.825,16.409-24.173,44.748-8.825,16.41,32.82,17.652Z"/><path d="M14699.37,668.071a216.537,216.537,0,0,1-25.916-33.261l-10.066-15.68-31.363,20.13,10.064,15.681a253.417,253.417,0,0,0,30.442,38.952,194.3,194.3,0,0,0,46.1,35.789l16.341,8.971,17.943-32.676-16.343-8.971A157.083,157.083,0,0,1,14699.37,668.071Z"/><path d="M14307.719,695.987v-39.68h25.144v78.616h37.341V637.636a18.671,18.671,0,0,0-18.672-18.673h-237.292a18.671,18.671,0,0,0-18.672,18.673v97.287h37.345V656.307h25.138v39.68a18.674,18.674,0,0,0,18.672,18.671h112.325A18.672,18.672,0,0,0,14307.719,695.987Zm-37.342-18.673h-74.982V656.307h74.982Z"/><path d="M14251.56,509.2V484.692h-37.345V509.2h-134.129v37.345h77.964v39.894a18.673,18.673,0,0,0,18.672,18.671h112.325a18.671,18.671,0,0,0,18.672-18.671V546.548h77.968V509.2H14251.56Zm18.817,58.566h-74.982V546.548h74.982Z"/><path d="M14679.741,970.2l.065,78.45h-6.913c-23.705,0-19.367.05-25.53.029h-18.6v37.2h18.6c23.187.076,18.841.117,25.53.117s2.349-.041,25.529-.117a18.6,18.6,0,0,0,18.6-18.6l-.08-97.08h40.692V932.857h-37.384l28.105-70.425a18.68,18.68,0,0,0-16.625-27.18h-119.181V872.6h91.705l-23.224,58.2a17.861,17.861,0,0,0-.686,2.061h-69.6V970.2h69Z"/><path d="M14453.929,1055.64l18.525,32.24,16.119-9.264c20.434-11.779,37.277-23.1,51.115-34.226,11.861,11.425,25.714,22.406,41.418,33.592l15.171,10.792,21.589-30.341-15.173-10.8c-13.788-9.82-25.851-19.3-35.994-28.9q2.553-2.948,4.867-5.9c18.025-23.029,25.394-45.956,26.915-71.075l.757-12.263c.621-9.94,1.216-19.462,1.756-30.163a18.621,18.621,0,0,0-17.726-19.472c-.293-.016-.584-.02-.874-.02v-.056h-53.326l.018-27.485V833.7h-37.2v18.6l-.02,27.485H14454.2v37.344h37.642l-.019,30.126v1.241a131.8,131.8,0,0,0,23.6,67.718c-12.084,9.621-27.028,19.59-45.374,30.165Zm75.115-138.513h33.632l-.634,10.18-.758,12.263c-1.07,17.7-6.221,33.846-18.771,50.009a95.649,95.649,0,0,1-13.485-43.554Z"/><path d="M14226.942,897h18.671V859.656h-70.162V835.35h-37.345v24.306h-70.159V897h159Z"/><path d="M14402.744,1049.9H14367.9a11.111,11.111,0,0,1-7.909-3.29,11.486,11.486,0,0,1-3.3-8.138v-100.6h28.367V900.533h-74.292l.123-46.706v-18.6H14273.7v18.6l-.124,46.706h-32.082v37.342h31.981l-.106,40.61h0c-.456,17.427-6.279,30.163-15.279,40.193-7.4,8.249-17.2,15.134-28.157,21.417a72.687,72.687,0,0,1-6.217-7.831c-2.222-3.276-3.737-5.96-3.737-7.093V1006.5h-37.345v18.672c0,9.155,4.174,18.926,10.3,27.954a121.39,121.39,0,0,0,22.139,24.109l9.438,7.753,10.839-5.565c19.022-9.769,36.768-20.683,50.455-35.944,14.6-16.274,24.04-36.64,24.762-64.117v-.44l.109-41.046h8.679v100.6a48.748,48.748,0,0,0,14.238,34.4,48.247,48.247,0,0,0,34.313,14.377h34.844Z"/><path d="M14364.978,874.106V837.384h-37.345v55.393h37.345Z"/><path d="M14090.289,1025.289a11.026,11.026,0,0,1-2.28,5.867,55.381,55.381,0,0,1-10.609,10.849l-14.37,11.816,23.635,28.737,14.366-11.816a90.98,90.98,0,0,0,17.76-18.726c5.565-8.2,8.844-17.043,8.844-26.727v-18.673h-37.345Z"/><path d="M14138.109,1085.332h37.344V997.791h34.415a18.673,18.673,0,0,0,18.673-18.671V923.137a18.672,18.672,0,0,0-18.673-18.673H14103.7a18.671,18.671,0,0,0-18.674,18.673V979.12a18.671,18.671,0,0,0,18.674,18.671h34.413v87.541Zm-15.742-124.884V941.809h68.829v18.639Z"/></g></svg>