<svg xmlns="http://www.w3.org/2000/svg" width="416.369" height="398.162" viewBox="0 0 416.369 398.162"><defs><style>.a,.c{fill:none;stroke:#db3800;stroke-miterlimit:10;}.a{stroke-width:0.75px;}.b{fill:#db3800;stroke:rgba(0,0,0,0);}</style></defs><g transform="translate(-10831.497 -3543.038)"><path class="a" d="M11025.682,3812.215a9.27,9.27,0,0,1-12.763,0,8.582,8.582,0,0,1-2.453-4.36h-4.35a12.623,12.623,0,0,0,3.771,7.28,13.68,13.68,0,0,0,18.827,0,12.613,12.613,0,0,0,3.77-7.272h-4.351A8.575,8.575,0,0,1,11025.682,3812.215Z"/><path class="a" d="M11028.642,3797.407l0,0a2.931,2.931,0,0,0,4.01,0l.007-.007a2.674,2.674,0,0,0,0-3.86l-.007-.007a2.935,2.935,0,0,0-3.937-.069c-.023.025-.048.051-.073.076a2.659,2.659,0,0,0,0,3.86Z"/><path class="a" d="M11012.719,3796.109v-.978l-1.3-.4-5.974-1.842v5.465l5.974-1.842Z"/><path class="b" d="M11034.474,3804.278h-8.01a1.828,1.828,0,0,0-1.861,1.792,5,5,0,0,1-1.553,3.611,5.449,5.449,0,0,1-7.5,0,5,5,0,0,1-1.553-3.611,1.828,1.828,0,0,0-1.861-1.792c-.055,0-.109,0-.164.007h-7.846a1.82,1.82,0,0,0-1.854,1.785h-.008a16.052,16.052,0,0,0,4.99,11.6,17.5,17.5,0,0,0,24.09,0,16.055,16.055,0,0,0,4.989-11.6A1.828,1.828,0,0,0,11034.474,3804.278Zm-5.76,10.857a13.68,13.68,0,0,1-18.827,0,12.623,12.623,0,0,1-3.771-7.28h4.35a8.582,8.582,0,0,0,2.453,4.36,9.27,9.27,0,0,0,12.763,0,8.575,8.575,0,0,0,2.451-4.352h4.351A12.613,12.613,0,0,1,11028.714,3815.135Z"/><path class="b" d="M11026.014,3799.938l0,0a6.716,6.716,0,0,0,9.258.008l0,0,0,0,0,0a6.134,6.134,0,0,0,0-8.911l0-.005,0,0,0,0a6.718,6.718,0,0,0-9.146-.106c-.041.033-.082.069-.121.106a6.152,6.152,0,0,0,0,8.93Zm2.633-6.4c.025-.025.05-.051.073-.076a2.935,2.935,0,0,1,3.937.069l.007.007a2.674,2.674,0,0,1,0,3.86l-.007.007a2.931,2.931,0,0,1-4.01,0l0,0,0,0a2.659,2.659,0,0,1,0-3.86Z"/><path class="b" d="M11004.15,3802.5l8.4-2.591,2.45-.756a1.809,1.809,0,0,0,1.439-1.746v-3.582h-.006a1.8,1.8,0,0,0-1.288-1.7l-2.6-.8-8.261-2.548a1.907,1.907,0,0,0-.708-.135,1.828,1.828,0,0,0-1.861,1.793V3800.8h0a1.721,1.721,0,0,0,.09.546A1.87,1.87,0,0,0,11004.15,3802.5Zm1.294-6.884v-2.732l5.974,1.842,1.3.4v.978l-1.3.4-5.974,1.842Z"/><circle class="a" cx="70.265" cy="70.265" r="70.265" transform="translate(10956.804 3543.413)"/><rect class="a" width="24.461" height="9.414" transform="translate(11080.113 3736.146)"/><path class="a" d="M11231.939,3770.291c.255,0,.507-.007.76,0v-19.458a5.377,5.377,0,0,0-5.477-5.273h-18.058v-21.032h-10.96v7.934l-1.587-1.921a5.526,5.526,0,0,0-4.285-2H11128.9a5.552,5.552,0,0,0-4.128,1.8L11111,3745.56h-41a5.378,5.378,0,0,0-5.483,5.273v78.1a5.383,5.383,0,0,0,5.483,5.28h157.23a5.382,5.382,0,0,0,5.477-5.28v-18.145c-.253.007-.5,0-.76,0-13.322,0-15.554-12.059-15.554-12.059v-16.387A15.315,15.315,0,0,1,11231.939,3770.291Zm-141.671,45.552a5.484,5.484,0,0,1-10.96,0v-50.606a5.484,5.484,0,0,1,10.96,0Z"/><path class="a" d="M11084.793,3759.957a5.384,5.384,0,0,0-5.484,5.28v50.606a5.484,5.484,0,0,0,10.96,0v-50.606A5.377,5.377,0,0,0,11084.793,3759.957Z"/><path class="a" d="M11222.845,3679.872h-38.3a5.455,5.455,0,0,0-5.512,5.308v34.039a5.455,5.455,0,0,0,5.512,5.309h38.3a5.388,5.388,0,0,0,5.435-5.309V3685.18A5.387,5.387,0,0,0,11222.845,3679.872Z"/><path class="a" d="M11232.428,3770.3c-.163,0-.325-.012-.488-.012-8.576,0-15.554,6.715-15.554,14.972v10.549c0,8.258,6.978,14.977,15.554,14.977.163,0,.325-.008.488-.012,8.346-.251,15.063-6.865,15.063-14.965v-10.549C11247.491,3777.164,11240.773,3770.554,11232.428,3770.3Z"/><path class="a" d="M11169.122,3740.875a43.345,43.345,0,0,0-7.6-.68c-23.011,0-41.729,18.025-41.729,40.176a39.185,39.185,0,0,0,10.557,26.676,42.338,42.338,0,0,0,31.173,13.508c23.012,0,41.73-18.025,41.73-40.184C11203.25,3760.72,11188.514,3744.327,11169.122,3740.875Z"/><circle class="a" cx="25.748" cy="25.748" r="25.748" transform="translate(11135.772 3754.627)"/><path class="c" d="M11206,3833.772h-117.173c-6.05,0-6.05,7,0,7h54.7c0,1.222-.011,92.795-.027,94.653-.014,1.448-.147,3.04.906,4.2l.081.087a2.68,2.68,0,0,0,2.014.885c.49-.018.98.011,1.47.007a3.4,3.4,0,0,0,1.4-.206,3.09,3.09,0,0,0,.967-.686l.081-.087c1.052-1.158.92-2.75.906-4.2-.019-1.858-.027-93.431-.027-94.653h54.7C11212.05,3840.772,11212.05,3833.772,11206,3833.772Z"/><path class="a" d="M11091.247,3833.749c-.5,0-1.009.01-1.52.035l27.075-.019Z"/><path class="a" d="M11007.733,3780.943q-16.619-39.645-33.239-79.289c-1.706-4.069-14.256-5.363-14.256-5.363"/><path class="a" d="M11145.465,3728.684c-23.289-15.107-49.772-22.979-77.343-26.679l-38.04,78.918"/><path class="a" d="M10960.465,3696.365c-12.443-5.783-24.992-11.387-37.072-17.913-9.154-4.946-21.3-9.3-24.973-19.593-2.554-7.152-2.652-30.044-2.652-43.5v-37.984c0-16.966-14.333-30.767-31.951-30.767s-31.944,13.8-31.944,30.767v101.568a30.187,30.187,0,0,0,12.187,24.179l58.726,44.5q5.027,3.809,10.056,7.621c4.011,3.048,7.478,4.288,7.352,10.045-.239,10.833-.054,21.7-.031,32.556.014,6.788.182,87.581.272,131.371.008,3.268.162,6.909,2.487,9.206,2.295,2.268,5.881,2.408,9.108,2.408h175.626c3.159,0,6.726-.173,8.821-2.536,1.829-2.061,1.9-5.094,1.864-7.849l-1.016-89.57-27.8-.094c-1.767-.006-5.517-.529-5.517-3.417,0-2.659,2.949-3.355,5.948-3.5"/><path class="a" d="M11044.105,3780.862h-49.28a6.77,6.77,0,0,0-6.894,6.638v34.113a6.766,6.766,0,0,0,6.894,6.632h49.28a6.765,6.765,0,0,0,6.893-6.632V3787.5A6.77,6.77,0,0,0,11044.105,3780.862Z"/><path class="a" d="M10973.095,3700.025c6.2.406,28.386-1.346,34.639-1.374,32.762-.145,34.129.849,60.389,3.354"/></g></svg>