<svg xmlns="http://www.w3.org/2000/svg" width="378.528" height="93.578" viewBox="0 0 378.528 93.578"><defs><style>.a{fill:none;stroke:#f2f2f2;stroke-miterlimit:10;}.b{fill:#db3800;}.c{fill:#fff;font-size:29.913px;font-family:Helvetica;}.d{font-family:PingFangSC-Regular, PingFang SC;}</style></defs><g transform="translate(-1295.87 -7575.636)"><path class="a" d="M3936.376,7622.425a46.288,46.288,0,0,0-42.055-46.088v-.2H3600.183v.267a46.288,46.288,0,0,0,0,92.044v.267h294.138v-.2A46.289,46.289,0,0,0,3936.376,7622.425Z" transform="translate(-2262.478)"/><path class="b" d="M3639.676,7621.136a8.14,8.14,0,0,0-7.973-8.274,7.694,7.694,0,0,1-11.415,0,8.138,8.138,0,0,0-7.974,8.274,3.651,3.651,0,0,0,.027.4c0,.037,0,.074,0,.113a7.046,7.046,0,0,0,.581,2.637c.012.035.025.067.039.1,2.429,5.828,11.782,12.532,12.179,12.84a1.371,1.371,0,0,0,1.681-.008c.341-.265,8.318-6.007,11.484-11.439a5.49,5.49,0,0,0,.29-.514c.024-.049.047-.1.073-.145l.01-.022a.594.594,0,0,1,.035-.055,8.658,8.658,0,0,0,.461-1.047,6.555,6.555,0,0,0,.49-2.343c0-.055,0-.1-.006-.145A3.393,3.393,0,0,0,3639.676,7621.136Z" transform="translate(-2262.478)"/><text class="c" transform="translate(1384.525 7632.161)"><tspan x="0" y="0">Een ogenblik </tspan><tspan class="d" y="0">游策</tspan></text></g></svg>