<svg xmlns="http://www.w3.org/2000/svg" width="378.527" height="93.577" viewBox="0 0 378.527 93.577"><defs><style>.a{fill:none;stroke:#000;stroke-miterlimit:10;}.b{fill:#db3800;}.c{font-size:29.913px;font-family:Helvetica;}.d{font-family:PingFangSC-Regular, PingFang SC;}</style></defs><g transform="translate(-1104.233 -1276.279)"><path class="a" d="M12206.139,1323.067a46.287,46.287,0,0,0-42.055-46.087v-.2h-294.138v.266a46.288,46.288,0,0,0,0,92.044v.267h294.138v-.2A46.287,46.287,0,0,0,12206.139,1323.067Z" transform="translate(-10723.878)"/><path class="b" d="M11909.439,1321.778a8.14,8.14,0,0,0-7.975-8.274,7.694,7.694,0,0,1-11.414,0,8.137,8.137,0,0,0-7.974,8.274,3.509,3.509,0,0,0,.026.4c0,.036,0,.073,0,.112a7.027,7.027,0,0,0,.581,2.637,1.012,1.012,0,0,0,.039.1c2.43,5.828,11.782,12.533,12.18,12.841a1.374,1.374,0,0,0,1.681-.008c.341-.266,8.318-6.008,11.484-11.44a5.729,5.729,0,0,0,.289-.514c.024-.049.048-.1.073-.144l.01-.023c.012-.018.023-.039.035-.055a8.51,8.51,0,0,0,.461-1.046,6.584,6.584,0,0,0,.49-2.344,1.261,1.261,0,0,0-.007-.145A3.181,3.181,0,0,0,11909.439,1321.778Z" transform="translate(-10723.878)"/><text class="c" transform="translate(1192.89 1332.804)"><tspan x="0" y="0">Een ogenblik </tspan><tspan class="d" y="0">游策</tspan></text></g></svg>