<svg xmlns="http://www.w3.org/2000/svg" width="37.16" height="36.786" viewBox="0 0 37.16 36.786"><defs><style>.a{fill:#fff;}</style></defs><g transform="translate(-4321.192 -36.129)"><path class="a" d="M4327.9,53.135h4.023c.056-.005.113-.008.171-.008a1.949,1.949,0,0,1,1.949,1.949,5.552,5.552,0,1,0,11.1,0,1.95,1.95,0,0,1,1.949-1.949h8.387a1.95,1.95,0,0,1,1.949,1.949,17.837,17.837,0,0,1-35.675,0h.007a1.942,1.942,0,0,1,1.942-1.941Z"/><path class="a" d="M4330.349,57.018h-4.555a13.942,13.942,0,0,0,27.61.008h-4.555a9.453,9.453,0,0,1-18.5-.008Z"/><path class="a" d="M4349.386,45.66a2.986,2.986,0,0,0,4.2,0l.008-.007a2.987,2.987,0,0,0,0-4.2l-.008-.007a2.989,2.989,0,0,0-4.121-.075c-.025.028-.05.055-.077.082a2.968,2.968,0,0,0,0,4.2l0,0Z"/><path class="a" d="M4351.485,50.42a6.849,6.849,0,0,1-4.851-2.015l0,0a6.865,6.865,0,0,1,0-9.711c.041-.04.083-.079.126-.115a6.846,6.846,0,0,1,9.576.115l0,0,0,0,.005,0a6.845,6.845,0,0,1-.005,9.69l0,0,0,0,0,.005A6.848,6.848,0,0,1,4351.485,50.42Z"/><path class="a" d="M4331.345,44.682l1.362-.436V43.182l-1.362-.436-6.255-2v5.943Z"/><path class="a" d="M4335.1,47.56l-2.566.822-8.8,2.817a1.942,1.942,0,0,1-2.537-1.85h-.006V38.078a1.95,1.95,0,0,1,2.691-1.8l8.65,2.771,2.717.87a1.944,1.944,0,0,1,1.35,1.85h0v3.9A1.95,1.95,0,0,1,4335.1,47.56Z"/></g></svg>