<svg
  t="1675320296031"
  class="icon"
  viewBox="0 0 1024 1024"
  version="1.1"
  xmlns="http://www.w3.org/2000/svg"
  p-id="2169"
  id="mx_n_1675320296033"
  width="200"
  height="200"
><path
    d="M897.962667 566.933333c-3.84 0-7.722667 0.362667-11.221334 1.066667l-159.786666-255.296a98.688 98.688 0 0 0 24.597333-65.066667C751.552 193.536 707.989333 149.333333 653.930667 149.333333c-54.08 0-97.621333 43.84-97.621334 98.304 0 31.829333 15.104 59.754667 37.909334 77.781334l-178.368 338.410666a99.2 99.2 0 0 0-25.28-3.541333c-16.149333 0-31.616 3.882667-44.949334 10.965333l-147.84-176.448c7.722667-11.669333 12.288-25.813333 12.288-41.024 0-40.661333-32.64-73.557333-73.024-73.557333S64 413.12 64 453.781333s32.64 73.557333 73.045333 73.557334c7.36 0 14.741333-1.066667 21.418667-3.2l150.634667 179.626666a99.2 99.2 0 0 0-16.149334 54.464c0 54.101333 43.52 98.304 97.621334 98.304 54.08 0 97.621333-43.84 97.621333-98.304 0-27.584-11.605333-52.693333-29.866667-70.357333l181.205334-343.36c4.906667 0.725333 9.472 1.066667 14.4 1.066667 11.221333 0 22.464-2.133333 32.64-5.653334l156.970666 251.050667a74.389333 74.389333 0 0 0-18.965333 49.152c0 40.661333 32.64 73.557333 73.045333 73.557333 40.384 0 73.024-32.896 73.024-73.557333a72.64 72.64 0 0 0-72.682666-73.173333"
    fill="#609EFD"
    p-id="2170"
  /></svg>
